<svg width="298" height="16" viewBox="0 0 298 16" fill="none" xmlns="http://www.w3.org/2000/svg">
<path d="M1.09028 11.0103V2.61025H6.82628V3.53425H2.05028V6.25825H6.33428V7.17025H2.05028V10.0863H6.82628V11.0103H1.09028ZM8.16644 11.0103V5.26225H9.10244V5.97025C9.45444 5.37025 9.96644 5.07025 10.6384 5.07025C11.4384 5.07025 11.9584 5.42625 12.1984 6.13825C12.5424 5.42625 13.1024 5.07025 13.8784 5.07025C14.4304 5.07025 14.8544 5.23825 15.1504 5.57425C15.4464 5.90225 15.5944 6.38625 15.5944 7.02625L15.6064 11.0103H14.6704V7.24225C14.6704 6.79425 14.5864 6.46625 14.4184 6.25825C14.2504 6.05025 13.9864 5.94625 13.6264 5.94625C13.2264 5.94625 12.9104 6.10625 12.6784 6.42625C12.4544 6.74625 12.3384 7.20225 12.3304 7.79425L12.3544 11.0103H11.4304V7.24225C11.4304 6.79425 11.3464 6.46625 11.1784 6.25825C11.0104 6.05025 10.7464 5.94625 10.3864 5.94625C9.98644 5.94625 9.67044 6.10625 9.43844 6.42625C9.21444 6.74625 9.10244 7.19825 9.10244 7.78225V11.0103H8.16644ZM19.111 7.56625L20.647 7.32625V7.05025C20.647 6.70625 20.523 6.43025 20.275 6.22225C20.035 6.01425 19.699 5.91025 19.267 5.91025C18.827 5.91025 18.483 6.03025 18.235 6.27025C17.995 6.50225 17.875 6.82225 17.875 7.23025C17.875 7.31825 17.879 7.37425 17.887 7.39825L16.963 7.32625V7.19425C16.963 6.53825 17.179 6.02225 17.611 5.64625C18.043 5.26225 18.583 5.07025 19.231 5.07025C19.975 5.07025 20.551 5.25025 20.959 5.61025C21.367 5.97025 21.571 6.47425 21.571 7.12225V11.0103H20.647V10.2543C20.279 10.8703 19.703 11.1783 18.919 11.1783C18.287 11.1783 17.795 11.0103 17.443 10.6743C17.099 10.3383 16.927 9.93825 16.927 9.47425C16.927 8.43425 17.655 7.79825 19.111 7.56625ZM19.099 10.3023C19.555 10.3023 19.927 10.1423 20.215 9.82225C20.503 9.50225 20.647 9.07825 20.647 8.55025V8.13025L19.171 8.38225C18.299 8.54225 17.863 8.87825 17.863 9.39025C17.863 9.67025 17.975 9.89425 18.199 10.0623C18.423 10.2223 18.723 10.3023 19.099 10.3023ZM23.1078 11.0103V5.25025H24.0678V11.0103H23.1078ZM23.5878 2.89825C23.7718 2.89825 23.9318 2.96625 24.0678 3.10225C24.2038 3.23025 24.2718 3.39025 24.2718 3.58225C24.2718 3.76625 24.2038 3.92625 24.0678 4.06225C23.9318 4.19825 23.7718 4.26625 23.5878 4.26625C23.3958 4.26625 23.2318 4.19825 23.0958 4.06225C22.9678 3.92625 22.9038 3.76625 22.9038 3.58225C22.9038 3.39025 22.9678 3.23025 23.0958 3.10225C23.2318 2.96625 23.3958 2.89825 23.5878 2.89825ZM25.6039 11.0103V2.61025H26.5639V11.0103H25.6039ZM28.46 9.73825C28.644 9.73825 28.8 9.80625 28.928 9.94225C29.064 10.0703 29.132 10.2263 29.132 10.4103C29.132 10.6023 29.064 10.7663 28.928 10.9023C28.8 11.0383 28.644 11.1063 28.46 11.1063C28.26 11.1063 28.092 11.0423 27.956 10.9143C27.828 10.7783 27.764 10.6103 27.764 10.4103C27.764 10.2263 27.828 10.0703 27.956 9.94225C28.092 9.80625 28.26 9.73825 28.46 9.73825ZM28.46 5.16625C28.644 5.16625 28.8 5.23425 28.928 5.37025C29.064 5.49825 29.132 5.65425 29.132 5.83825C29.132 6.03025 29.064 6.19425 28.928 6.33025C28.8 6.46625 28.644 6.53425 28.46 6.53425C28.26 6.53425 28.092 6.47025 27.956 6.34225C27.828 6.20625 27.764 6.03825 27.764 5.83825C27.764 5.65425 27.828 5.49825 27.956 5.37025C28.092 5.23425 28.26 5.16625 28.46 5.16625ZM32.8946 8.93425L33.8426 8.75425C33.8986 9.21825 34.0746 9.59425 34.3706 9.88225C34.6666 10.1623 35.0426 10.3023 35.4986 10.3023C35.9066 10.3023 36.2346 10.2143 36.4826 10.0383C36.7306 9.86225 36.8546 9.63425 36.8546 9.35425C36.8546 8.84225 36.3586 8.53825 35.3666 8.44225C33.9906 8.29825 33.3026 7.71025 33.3026 6.67825C33.3026 6.21425 33.5026 5.83025 33.9026 5.52625C34.3026 5.22225 34.7986 5.07025 35.3906 5.07025C35.9266 5.07025 36.3946 5.23425 36.7946 5.56225C37.2026 5.88225 37.4666 6.31025 37.5866 6.84625L36.7106 7.11025C36.6466 6.75025 36.4946 6.47025 36.2546 6.27025C36.0146 6.07025 35.7266 5.97025 35.3906 5.97025C35.0626 5.97025 34.7946 6.03825 34.5866 6.17425C34.3786 6.30225 34.2746 6.47025 34.2746 6.67825C34.2746 7.14225 34.6866 7.41825 35.5106 7.50625C37.0466 7.66625 37.8146 8.27425 37.8146 9.33025C37.8146 9.87425 37.5986 10.3223 37.1666 10.6743C36.7346 11.0183 36.1786 11.1903 35.4986 11.1903C34.8186 11.1903 34.2426 10.9863 33.7706 10.5783C33.2986 10.1623 33.0066 9.61425 32.8946 8.93425ZM43.7884 5.25025V11.0103H42.8284V10.2783C42.3724 10.8863 41.7364 11.1903 40.9204 11.1903C40.2964 11.1903 39.8044 10.9943 39.4444 10.6023C39.0924 10.2103 38.9164 9.67825 38.9164 9.00625V5.25025H39.8764V8.80225C39.8764 9.81025 40.3204 10.3143 41.2084 10.3143C41.6964 10.3143 42.0884 10.1383 42.3844 9.78625C42.6804 9.42625 42.8284 8.94625 42.8284 8.34625V5.25025H43.7884ZM45.3266 13.7103V5.25025H46.2866V6.12625C46.7986 5.42225 47.5026 5.07025 48.3986 5.07025C49.1826 5.07025 49.8306 5.36625 50.3426 5.95825C50.8626 6.54225 51.1226 7.26625 51.1226 8.13025C51.1226 8.99425 50.8626 9.72225 50.3426 10.3143C49.8306 10.8983 49.1826 11.1903 48.3986 11.1903C47.5026 11.1903 46.7986 10.8383 46.2866 10.1343V13.7103H45.3266ZM49.6106 9.66625C49.9786 9.25825 50.1626 8.74625 50.1626 8.13025C50.1626 7.51425 49.9786 7.00625 49.6106 6.60625C49.2506 6.19825 48.7866 5.99425 48.2186 5.99425C47.6186 5.99425 47.1466 6.20225 46.8026 6.61825C46.4586 7.01825 46.2866 7.54225 46.2866 8.19025C46.2866 8.79025 46.4706 9.28625 46.8386 9.67825C47.2146 10.0703 47.6746 10.2663 48.2186 10.2663C48.7866 10.2663 49.2506 10.0663 49.6106 9.66625ZM52.311 13.7103V5.25025H53.271V6.12625C53.783 5.42225 54.487 5.07025 55.383 5.07025C56.167 5.07025 56.815 5.36625 57.327 5.95825C57.847 6.54225 58.107 7.26625 58.107 8.13025C58.107 8.99425 57.847 9.72225 57.327 10.3143C56.815 10.8983 56.167 11.1903 55.383 11.1903C54.487 11.1903 53.783 10.8383 53.271 10.1343V13.7103H52.311ZM56.595 9.66625C56.963 9.25825 57.147 8.74625 57.147 8.13025C57.147 7.51425 56.963 7.00625 56.595 6.60625C56.235 6.19825 55.771 5.99425 55.203 5.99425C54.603 5.99425 54.131 6.20225 53.787 6.61825C53.443 7.01825 53.271 7.54225 53.271 8.19025C53.271 8.79025 53.455 9.28625 53.823 9.67825C54.199 10.0703 54.659 10.2663 55.203 10.2663C55.771 10.2663 56.235 10.0663 56.595 9.66625ZM61.9353 5.07025C62.7913 5.07025 63.4953 5.36625 64.0473 5.95825C64.6073 6.55025 64.8873 7.27825 64.8873 8.14225C64.8873 9.00625 64.6113 9.73025 64.0593 10.3143C63.5073 10.8983 62.7993 11.1903 61.9353 11.1903C61.0713 11.1903 60.3593 10.8983 59.7993 10.3143C59.2393 9.73025 58.9593 9.00625 58.9593 8.14225C58.9593 7.27825 59.2393 6.55025 59.7993 5.95825C60.3593 5.36625 61.0713 5.07025 61.9353 5.07025ZM60.4833 9.66625C60.8673 10.0663 61.3473 10.2663 61.9233 10.2663C62.4993 10.2663 62.9753 10.0663 63.3513 9.66625C63.7353 9.26625 63.9273 8.75825 63.9273 8.14225C63.9273 7.52625 63.7353 7.01425 63.3513 6.60625C62.9753 6.19825 62.4993 5.99425 61.9233 5.99425C61.3473 5.99425 60.8673 6.19825 60.4833 6.60625C60.1073 7.01425 59.9193 7.52625 59.9193 8.14225C59.9193 8.75025 60.1073 9.25825 60.4833 9.66625ZM66.0805 11.0103V5.25025H67.0405V5.88625C67.3925 5.34225 67.9045 5.07025 68.5765 5.07025C69.1125 5.07025 69.5405 5.25425 69.8605 5.62225C70.1805 5.98225 70.3405 6.49025 70.3405 7.14625V7.38625L69.3685 7.51825C69.3765 7.47025 69.3805 7.37025 69.3805 7.21825C69.3805 6.81825 69.2885 6.51025 69.1045 6.29425C68.9205 6.07825 68.6685 5.97025 68.3485 5.97025C67.9565 5.97025 67.6405 6.13025 67.4005 6.45025C67.1605 6.76225 67.0405 7.19025 67.0405 7.73425V11.0103H66.0805ZM70.8488 6.11425V5.25025H71.9528V3.49825H72.9128V5.25025H75.9248V6.11425H72.9128V9.04225C72.9128 9.45025 73.0128 9.76225 73.2128 9.97825C73.4208 10.1943 73.7088 10.3023 74.0768 10.3023C74.4368 10.3023 74.7168 10.1703 74.9168 9.90625C75.1168 9.64225 75.2048 9.29025 75.1808 8.85025L76.1168 8.93425C76.1488 9.60625 75.9728 10.1503 75.5888 10.5663C75.2048 10.9823 74.7128 11.1903 74.1128 11.1903C73.4488 11.1903 72.9208 10.9983 72.5288 10.6143C72.1448 10.2223 71.9528 9.69025 71.9528 9.01825V6.11425H70.8488ZM81.3558 3.69025C82.6518 3.69025 83.6998 4.08625 84.4998 4.87825C85.2998 5.67025 85.6998 6.72225 85.6998 8.03425C85.6998 8.70625 85.5278 9.24625 85.1838 9.65425C84.8398 10.0623 84.3758 10.2663 83.7918 10.2663C83.1598 10.2663 82.7478 10.0423 82.5558 9.59425C82.1558 10.0423 81.6598 10.2663 81.0678 10.2663C80.4918 10.2663 80.0558 10.0743 79.7598 9.69025C79.4558 9.29825 79.3038 8.83025 79.3038 8.28625C79.3038 7.66225 79.4958 7.11825 79.8798 6.65425C80.2638 6.18225 80.7678 5.94625 81.3918 5.94625C81.9358 5.94625 82.3638 6.13025 82.6758 6.49825L82.7238 6.06625H83.4078L83.1678 8.89825C83.1598 9.09025 83.2078 9.25025 83.3118 9.37825C83.4238 9.49825 83.5838 9.55825 83.7918 9.55825C84.1518 9.55825 84.4358 9.41425 84.6438 9.12625C84.8518 8.83825 84.9558 8.47425 84.9558 8.03425C84.9558 6.91425 84.6278 6.03025 83.9718 5.38225C83.3238 4.72625 82.4518 4.39825 81.3558 4.39825C80.3798 4.38225 79.5238 4.74625 78.7878 5.49025C78.0598 6.22625 77.7038 7.09025 77.7198 8.08225C77.7038 9.07425 78.0598 9.94225 78.7878 10.6863C79.5158 11.4223 80.3718 11.7783 81.3558 11.7543C82.0518 11.7543 82.6758 11.5783 83.2278 11.2263L83.6118 11.8263C82.9798 12.2503 82.2278 12.4623 81.3558 12.4623C80.1878 12.4863 79.1598 12.0583 78.2718 11.1783C77.3838 10.2983 76.9518 9.26625 76.9758 8.08225C76.9518 6.91425 77.3798 5.88625 78.2598 4.99825C79.1398 4.10225 80.1718 3.66625 81.3558 3.69025ZM81.1638 9.55825C81.5638 9.55825 81.8878 9.39825 82.1358 9.07825C82.3918 8.75025 82.5198 8.37825 82.5198 7.96225C82.5198 7.57825 82.4238 7.26625 82.2318 7.02625C82.0398 6.77825 81.7678 6.65425 81.4158 6.65425C80.9998 6.65425 80.6638 6.81825 80.4078 7.14625C80.1598 7.46625 80.0358 7.83825 80.0358 8.26225C80.0358 8.63825 80.1358 8.95025 80.3358 9.19825C80.5358 9.43825 80.8118 9.55825 81.1638 9.55825ZM87.1039 11.0103V2.61025H88.0639V7.72225L90.5599 5.25025H91.8079L89.3719 7.66225L91.9519 11.0103H90.7759L88.6999 8.33425L88.0639 8.95825V11.0103H87.1039ZM92.893 11.0103V2.61025H93.853V11.0103H92.893ZM97.3571 7.56625L98.8931 7.32625V7.05025C98.8931 6.70625 98.7691 6.43025 98.5211 6.22225C98.2811 6.01425 97.9451 5.91025 97.5131 5.91025C97.0731 5.91025 96.7291 6.03025 96.4811 6.27025C96.2411 6.50225 96.1211 6.82225 96.1211 7.23025C96.1211 7.31825 96.1251 7.37425 96.1331 7.39825L95.2091 7.32625V7.19425C95.2091 6.53825 95.4251 6.02225 95.8571 5.64625C96.2891 5.26225 96.8291 5.07025 97.4771 5.07025C98.2211 5.07025 98.7971 5.25025 99.2051 5.61025C99.6131 5.97025 99.8171 6.47425 99.8171 7.12225V11.0103H98.8931V10.2543C98.5251 10.8703 97.9491 11.1783 97.1651 11.1783C96.5331 11.1783 96.0411 11.0103 95.6891 10.6743C95.3451 10.3383 95.1731 9.93825 95.1731 9.47425C95.1731 8.43425 95.9011 7.79825 97.3571 7.56625ZM97.3451 10.3023C97.8011 10.3023 98.1731 10.1423 98.4611 9.82225C98.7491 9.50225 98.8931 9.07825 98.8931 8.55025V8.13025L97.4171 8.38225C96.5451 8.54225 96.1091 8.87825 96.1091 9.39025C96.1091 9.67025 96.2211 9.89425 96.4451 10.0623C96.6691 10.2223 96.9691 10.3023 97.3451 10.3023ZM100.922 8.93425L101.87 8.75425C101.926 9.21825 102.102 9.59425 102.398 9.88225C102.694 10.1623 103.07 10.3023 103.526 10.3023C103.934 10.3023 104.262 10.2143 104.51 10.0383C104.758 9.86225 104.882 9.63425 104.882 9.35425C104.882 8.84225 104.386 8.53825 103.394 8.44225C102.018 8.29825 101.33 7.71025 101.33 6.67825C101.33 6.21425 101.53 5.83025 101.93 5.52625C102.33 5.22225 102.826 5.07025 103.418 5.07025C103.954 5.07025 104.422 5.23425 104.822 5.56225C105.23 5.88225 105.494 6.31025 105.614 6.84625L104.738 7.11025C104.674 6.75025 104.522 6.47025 104.282 6.27025C104.042 6.07025 103.754 5.97025 103.418 5.97025C103.09 5.97025 102.822 6.03825 102.614 6.17425C102.406 6.30225 102.302 6.47025 102.302 6.67825C102.302 7.14225 102.714 7.41825 103.538 7.50625C105.074 7.66625 105.842 8.27425 105.842 9.33025C105.842 9.87425 105.626 10.3223 105.194 10.6743C104.762 11.0183 104.206 11.1903 103.526 11.1903C102.846 11.1903 102.27 10.9863 101.798 10.5783C101.326 10.1623 101.034 9.61425 100.922 8.93425ZM106.944 11.0103V2.61025H107.904V5.98225C108.36 5.37425 108.996 5.07025 109.812 5.07025C110.436 5.07025 110.924 5.26625 111.276 5.65825C111.636 6.05025 111.816 6.58225 111.816 7.25425V11.0103H110.856V7.45825C110.856 6.45025 110.412 5.94625 109.524 5.94625C109.036 5.94625 108.644 6.12625 108.348 6.48625C108.052 6.83825 107.904 7.31425 107.904 7.91425V11.0103H106.944ZM115.322 7.56625L116.858 7.32625V7.05025C116.858 6.70625 116.734 6.43025 116.486 6.22225C116.246 6.01425 115.91 5.91025 115.478 5.91025C115.038 5.91025 114.694 6.03025 114.446 6.27025C114.206 6.50225 114.086 6.82225 114.086 7.23025C114.086 7.31825 114.09 7.37425 114.098 7.39825L113.174 7.32625V7.19425C113.174 6.53825 113.39 6.02225 113.822 5.64625C114.254 5.26225 114.794 5.07025 115.442 5.07025C116.186 5.07025 116.762 5.25025 117.17 5.61025C117.578 5.97025 117.782 6.47425 117.782 7.12225V11.0103H116.858V10.2543C116.49 10.8703 115.914 11.1783 115.13 11.1783C114.498 11.1783 114.006 11.0103 113.654 10.6743C113.31 10.3383 113.138 9.93825 113.138 9.47425C113.138 8.43425 113.866 7.79825 115.322 7.56625ZM115.31 10.3023C115.766 10.3023 116.138 10.1423 116.426 9.82225C116.714 9.50225 116.858 9.07825 116.858 8.55025V8.13025L115.382 8.38225C114.51 8.54225 114.074 8.87825 114.074 9.39025C114.074 9.67025 114.186 9.89425 114.41 10.0623C114.634 10.2223 114.934 10.3023 115.31 10.3023ZM119.679 9.73825C119.863 9.73825 120.019 9.80625 120.147 9.94225C120.283 10.0703 120.351 10.2263 120.351 10.4103C120.351 10.6023 120.283 10.7663 120.147 10.9023C120.019 11.0383 119.863 11.1063 119.679 11.1063C119.479 11.1063 119.311 11.0423 119.175 10.9143C119.047 10.7783 118.983 10.6103 118.983 10.4103C118.983 10.2263 119.047 10.0703 119.175 9.94225C119.311 9.80625 119.479 9.73825 119.679 9.73825ZM123.912 5.07025C124.56 5.07025 125.104 5.24625 125.544 5.59825C125.992 5.94225 126.28 6.41425 126.408 7.01425L125.508 7.29025C125.444 6.89825 125.268 6.58625 124.98 6.35425C124.692 6.11425 124.336 5.99425 123.912 5.99425C123.368 5.99425 122.92 6.19425 122.568 6.59425C122.216 6.98625 122.04 7.46625 122.04 8.03425C122.04 8.69025 122.216 9.23025 122.568 9.65425C122.928 10.0623 123.4 10.2663 123.984 10.2663C124.456 10.2663 124.86 10.1223 125.196 9.83425C125.532 9.54625 125.724 9.17025 125.772 8.70625L126.684 8.91025C126.612 9.56625 126.32 10.1103 125.808 10.5423C125.304 10.9743 124.7 11.1903 123.996 11.1903C123.132 11.1903 122.428 10.9063 121.884 10.3383C121.348 9.76225 121.08 9.03025 121.08 8.14225C121.08 7.26225 121.344 6.53025 121.872 5.94625C122.4 5.36225 123.08 5.07025 123.912 5.07025ZM130.396 5.07025C131.252 5.07025 131.956 5.36625 132.508 5.95825C133.068 6.55025 133.348 7.27825 133.348 8.14225C133.348 9.00625 133.072 9.73025 132.52 10.3143C131.968 10.8983 131.26 11.1903 130.396 11.1903C129.532 11.1903 128.82 10.8983 128.26 10.3143C127.7 9.73025 127.42 9.00625 127.42 8.14225C127.42 7.27825 127.7 6.55025 128.26 5.95825C128.82 5.36625 129.532 5.07025 130.396 5.07025ZM128.944 9.66625C129.328 10.0663 129.808 10.2663 130.384 10.2663C130.96 10.2663 131.436 10.0663 131.812 9.66625C132.196 9.26625 132.388 8.75825 132.388 8.14225C132.388 7.52625 132.196 7.01425 131.812 6.60625C131.436 6.19825 130.96 5.99425 130.384 5.99425C129.808 5.99425 129.328 6.19825 128.944 6.60625C128.568 7.01425 128.38 7.52625 128.38 8.14225C128.38 8.75025 128.568 9.25825 128.944 9.66625ZM134.541 11.0103V5.26225H135.477V5.97025C135.829 5.37025 136.341 5.07025 137.013 5.07025C137.813 5.07025 138.333 5.42625 138.573 6.13825C138.917 5.42625 139.477 5.07025 140.253 5.07025C140.805 5.07025 141.229 5.23825 141.525 5.57425C141.821 5.90225 141.969 6.38625 141.969 7.02625L141.981 11.0103H141.045V7.24225C141.045 6.79425 140.961 6.46625 140.793 6.25825C140.625 6.05025 140.361 5.94625 140.001 5.94625C139.601 5.94625 139.285 6.10625 139.053 6.42625C138.829 6.74625 138.713 7.20225 138.705 7.79425L138.729 11.0103H137.805V7.24225C137.805 6.79425 137.721 6.46625 137.553 6.25825C137.385 6.05025 137.121 5.94625 136.761 5.94625C136.361 5.94625 136.045 6.10625 135.813 6.42625C135.589 6.74625 135.477 7.19825 135.477 7.78225V11.0103H134.541Z" fill="#717070"/>
<path d="M156.533 2.61025H157.517L159.293 9.65425L161.141 2.61025H162.185L164.033 9.70225L165.809 2.61025H166.781L164.621 11.0103H163.445L161.669 4.13425L159.881 11.0103H158.693L156.533 2.61025ZM167.692 11.0103V2.61025H168.652V5.98225C169.108 5.37425 169.744 5.07025 170.56 5.07025C171.184 5.07025 171.672 5.26625 172.024 5.65825C172.384 6.05025 172.564 6.58225 172.564 7.25425V11.0103H171.604V7.45825C171.604 6.45025 171.16 5.94625 170.272 5.94625C169.784 5.94625 169.392 6.12625 169.096 6.48625C168.8 6.83825 168.652 7.31425 168.652 7.91425V11.0103H167.692ZM176.07 7.56625L177.606 7.32625V7.05025C177.606 6.70625 177.482 6.43025 177.234 6.22225C176.994 6.01425 176.658 5.91025 176.226 5.91025C175.786 5.91025 175.442 6.03025 175.194 6.27025C174.954 6.50225 174.834 6.82225 174.834 7.23025C174.834 7.31825 174.838 7.37425 174.846 7.39825L173.922 7.32625V7.19425C173.922 6.53825 174.138 6.02225 174.57 5.64625C175.002 5.26225 175.542 5.07025 176.19 5.07025C176.934 5.07025 177.51 5.25025 177.918 5.61025C178.326 5.97025 178.53 6.47425 178.53 7.12225V11.0103H177.606V10.2543C177.238 10.8703 176.662 11.1783 175.878 11.1783C175.246 11.1783 174.754 11.0103 174.402 10.6743C174.058 10.3383 173.886 9.93825 173.886 9.47425C173.886 8.43425 174.614 7.79825 176.07 7.56625ZM176.058 10.3023C176.514 10.3023 176.886 10.1423 177.174 9.82225C177.462 9.50225 177.606 9.07825 177.606 8.55025V8.13025L176.13 8.38225C175.258 8.54225 174.822 8.87825 174.822 9.39025C174.822 9.67025 174.934 9.89425 175.158 10.0623C175.382 10.2223 175.682 10.3023 176.058 10.3023ZM179.515 6.11425V5.25025H180.619V3.49825H181.579V5.25025H184.591V6.11425H181.579V9.04225C181.579 9.45025 181.679 9.76225 181.879 9.97825C182.087 10.1943 182.375 10.3023 182.743 10.3023C183.103 10.3023 183.383 10.1703 183.583 9.90625C183.783 9.64225 183.871 9.29025 183.847 8.85025L184.783 8.93425C184.815 9.60625 184.639 10.1503 184.255 10.5663C183.871 10.9823 183.379 11.1903 182.779 11.1903C182.115 11.1903 181.587 10.9983 181.195 10.6143C180.811 10.2223 180.619 9.69025 180.619 9.01825V6.11425H179.515ZM185.4 8.93425L186.348 8.75425C186.404 9.21825 186.58 9.59425 186.876 9.88225C187.172 10.1623 187.548 10.3023 188.004 10.3023C188.412 10.3023 188.74 10.2143 188.988 10.0383C189.236 9.86225 189.36 9.63425 189.36 9.35425C189.36 8.84225 188.864 8.53825 187.872 8.44225C186.496 8.29825 185.808 7.71025 185.808 6.67825C185.808 6.21425 186.008 5.83025 186.408 5.52625C186.808 5.22225 187.304 5.07025 187.896 5.07025C188.432 5.07025 188.9 5.23425 189.3 5.56225C189.708 5.88225 189.972 6.31025 190.092 6.84625L189.216 7.11025C189.152 6.75025 189 6.47025 188.76 6.27025C188.52 6.07025 188.232 5.97025 187.896 5.97025C187.568 5.97025 187.3 6.03825 187.092 6.17425C186.884 6.30225 186.78 6.47025 186.78 6.67825C186.78 7.14225 187.192 7.41825 188.016 7.50625C189.552 7.66625 190.32 8.27425 190.32 9.33025C190.32 9.87425 190.104 10.3223 189.672 10.6743C189.24 11.0183 188.684 11.1903 188.004 11.1903C187.324 11.1903 186.748 10.9863 186.276 10.5783C185.804 10.1623 185.512 9.61425 185.4 8.93425ZM190.822 11.0103L194.266 2.61025H195.394L198.838 11.0103H197.782L196.774 8.52625H192.874L191.866 11.0103H190.822ZM193.246 7.60225H196.402L194.83 3.70225L193.246 7.60225ZM199.778 13.7103V5.25025H200.738V6.12625C201.25 5.42225 201.954 5.07025 202.85 5.07025C203.634 5.07025 204.282 5.36625 204.794 5.95825C205.314 6.54225 205.574 7.26625 205.574 8.13025C205.574 8.99425 205.314 9.72225 204.794 10.3143C204.282 10.8983 203.634 11.1903 202.85 11.1903C201.954 11.1903 201.25 10.8383 200.738 10.1343V13.7103H199.778ZM204.062 9.66625C204.43 9.25825 204.614 8.74625 204.614 8.13025C204.614 7.51425 204.43 7.00625 204.062 6.60625C203.702 6.19825 203.238 5.99425 202.67 5.99425C202.07 5.99425 201.598 6.20225 201.254 6.61825C200.91 7.01825 200.738 7.54225 200.738 8.19025C200.738 8.79025 200.922 9.28625 201.29 9.67825C201.666 10.0703 202.126 10.2663 202.67 10.2663C203.238 10.2663 203.702 10.0663 204.062 9.66625ZM206.762 13.7103V5.25025H207.722V6.12625C208.234 5.42225 208.938 5.07025 209.834 5.07025C210.618 5.07025 211.266 5.36625 211.778 5.95825C212.298 6.54225 212.558 7.26625 212.558 8.13025C212.558 8.99425 212.298 9.72225 211.778 10.3143C211.266 10.8983 210.618 11.1903 209.834 11.1903C208.938 11.1903 208.234 10.8383 207.722 10.1343V13.7103H206.762ZM211.046 9.66625C211.414 9.25825 211.598 8.74625 211.598 8.13025C211.598 7.51425 211.414 7.00625 211.046 6.60625C210.686 6.19825 210.222 5.99425 209.654 5.99425C209.054 5.99425 208.582 6.20225 208.238 6.61825C207.894 7.01825 207.722 7.54225 207.722 8.19025C207.722 8.79025 207.906 9.28625 208.274 9.67825C208.65 10.0703 209.11 10.2663 209.654 10.2663C210.222 10.2663 210.686 10.0663 211.046 9.66625ZM214.107 9.73825C214.291 9.73825 214.447 9.80625 214.575 9.94225C214.711 10.0703 214.779 10.2263 214.779 10.4103C214.779 10.6023 214.711 10.7663 214.575 10.9023C214.447 11.0383 214.291 11.1063 214.107 11.1063C213.907 11.1063 213.739 11.0423 213.603 10.9143C213.475 10.7783 213.411 10.6103 213.411 10.4103C213.411 10.2263 213.475 10.0703 213.603 9.94225C213.739 9.80625 213.907 9.73825 214.107 9.73825ZM214.107 5.16625C214.291 5.16625 214.447 5.23425 214.575 5.37025C214.711 5.49825 214.779 5.65425 214.779 5.83825C214.779 6.03025 214.711 6.19425 214.575 6.33025C214.447 6.46625 214.291 6.53425 214.107 6.53425C213.907 6.53425 213.739 6.47025 213.603 6.34225C213.475 6.20625 213.411 6.03825 213.411 5.83825C213.411 5.65425 213.475 5.49825 213.603 5.37025C213.739 5.23425 213.907 5.16625 214.107 5.16625ZM218.805 7.29025V6.33025H221.313V3.81025H222.297V6.33025H224.805V7.29025H222.297V9.81025H221.313V7.29025H218.805ZM225.736 4.99825V4.18225C226.296 4.18225 226.72 4.04225 227.008 3.76225C227.304 3.48225 227.452 3.09825 227.452 2.61025H228.436V11.0103H227.476V4.99825H225.736ZM229.843 11.0103V10.3743C229.843 9.83825 229.963 9.38625 230.203 9.01825C230.451 8.63425 230.747 8.33025 231.091 8.10625C231.427 7.89025 231.879 7.63825 232.447 7.35025C232.871 7.15025 233.259 6.94225 233.611 6.72625C234.291 6.28625 234.631 5.74225 234.631 5.09425C234.631 4.55825 234.463 4.13425 234.127 3.82225C233.799 3.51025 233.351 3.35425 232.783 3.35425C232.095 3.35425 231.599 3.54225 231.295 3.91825C230.999 4.28625 230.851 4.73425 230.851 5.26225C230.851 5.49425 230.875 5.70225 230.923 5.88625L229.855 5.80225C229.823 5.60225 229.807 5.42225 229.807 5.26225C229.807 4.48625 230.055 3.82225 230.551 3.27025C231.047 2.71025 231.795 2.43025 232.795 2.43025C233.627 2.43025 234.303 2.67425 234.823 3.16225C235.343 3.65025 235.603 4.28625 235.603 5.07025C235.603 5.60625 235.483 6.06225 235.243 6.43825C235.027 6.78225 234.755 7.07425 234.427 7.31425C234.099 7.55425 233.643 7.81825 233.059 8.10625C232.651 8.30625 232.295 8.49825 231.991 8.68225C231.367 9.08225 231.007 9.55025 230.911 10.0863H235.615V11.0103H229.843ZM236.518 4.99825V4.18225C237.078 4.18225 237.502 4.04225 237.79 3.76225C238.086 3.48225 238.234 3.09825 238.234 2.61025H239.218V11.0103H238.258V4.99825H236.518ZM240.588 8.37025L241.608 8.22625C241.6 8.25825 241.596 8.33425 241.596 8.45425C241.596 8.99825 241.764 9.43825 242.1 9.77425C242.444 10.1023 242.924 10.2663 243.54 10.2663C244.196 10.2663 244.716 10.1063 245.1 9.78625C245.492 9.45825 245.688 9.02625 245.688 8.49025C245.688 7.97825 245.5 7.58625 245.124 7.31425C244.748 7.03425 244.232 6.89425 243.576 6.89425H242.772V5.99425H243.528C244.072 5.99425 244.496 5.87025 244.8 5.62225C245.104 5.37425 245.256 5.04225 245.256 4.62625C245.256 4.23425 245.104 3.92625 244.8 3.70225C244.496 3.47025 244.08 3.35425 243.552 3.35425C243.016 3.35425 242.604 3.49825 242.316 3.78625C242.036 4.06625 241.896 4.45025 241.896 4.93825L240.912 4.78225C240.928 4.11025 241.172 3.55025 241.644 3.10225C242.124 2.65425 242.756 2.43025 243.54 2.43025C244.388 2.43025 245.044 2.63425 245.508 3.04225C245.98 3.44225 246.216 3.94625 246.216 4.55425C246.216 5.33825 245.9 5.94225 245.268 6.36625C245.724 6.58225 246.072 6.87425 246.312 7.24225C246.552 7.61025 246.672 8.02625 246.672 8.49025C246.672 9.25025 246.392 9.89025 245.832 10.4103C245.272 10.9303 244.504 11.1903 243.528 11.1903C242.616 11.1903 241.896 10.9383 241.368 10.4343C240.848 9.92225 240.588 9.28625 240.588 8.52625V8.37025ZM249.284 6.43825C248.58 6.03825 248.228 5.46225 248.228 4.71025C248.228 4.04625 248.484 3.50225 248.996 3.07825C249.508 2.64625 250.16 2.43025 250.952 2.43025C251.744 2.43025 252.396 2.64625 252.908 3.07825C253.42 3.50225 253.676 4.04625 253.676 4.71025C253.676 5.47025 253.32 6.04625 252.608 6.43825C253.072 6.65425 253.432 6.95025 253.688 7.32625C253.944 7.70225 254.072 8.12625 254.072 8.59825C254.072 9.36625 253.78 9.99025 253.196 10.4703C252.62 10.9503 251.872 11.1903 250.952 11.1903C250.008 11.1903 249.244 10.9543 248.66 10.4823C248.084 10.0103 247.796 9.38225 247.796 8.59825C247.796 8.12625 247.928 7.70225 248.192 7.32625C248.456 6.95025 248.82 6.65425 249.284 6.43825ZM249.668 5.68225C249.988 5.92225 250.416 6.04225 250.952 6.04225C251.488 6.04225 251.916 5.92225 252.236 5.68225C252.564 5.43425 252.728 5.10625 252.728 4.69825C252.728 4.27425 252.564 3.93425 252.236 3.67825C251.908 3.41425 251.48 3.28225 250.952 3.28225C250.416 3.28225 249.988 3.41425 249.668 3.67825C249.348 3.93425 249.188 4.27425 249.188 4.69825C249.188 5.10625 249.348 5.43425 249.668 5.68225ZM250.952 10.3023C251.592 10.3023 252.108 10.1463 252.5 9.83425C252.892 9.52225 253.088 9.11025 253.088 8.59825C253.088 8.10225 252.888 7.69425 252.488 7.37425C252.096 7.05425 251.584 6.89425 250.952 6.89425C250.304 6.89425 249.78 7.05425 249.38 7.37425C248.988 7.68625 248.792 8.09425 248.792 8.59825C248.792 9.11825 248.988 9.53425 249.38 9.84625C249.772 10.1503 250.296 10.3023 250.952 10.3023ZM258.311 2.43025C259.119 2.43025 259.787 2.67825 260.315 3.17425C260.851 3.67025 261.123 4.31025 261.131 5.09425L260.147 5.25025C260.163 4.67425 260.003 4.21425 259.667 3.87025C259.339 3.52625 258.891 3.35425 258.323 3.35425C257.667 3.35425 257.143 3.62225 256.751 4.15825C256.367 4.69425 256.143 5.48625 256.079 6.53425C256.631 5.79825 257.387 5.43025 258.347 5.43025C259.155 5.43025 259.835 5.70225 260.387 6.24625C260.947 6.79025 261.227 7.46625 261.227 8.27425C261.227 9.09025 260.931 9.78225 260.339 10.3503C259.755 10.9103 259.047 11.1903 258.215 11.1903C257.263 11.1903 256.499 10.8503 255.923 10.1703C255.355 9.49025 255.071 8.50625 255.071 7.21825C255.071 5.68225 255.351 4.50225 255.911 3.67825C256.479 2.84625 257.279 2.43025 258.311 2.43025ZM258.215 10.2663C258.791 10.2663 259.275 10.0743 259.667 9.69025C260.067 9.29825 260.267 8.82225 260.267 8.26225C260.267 7.70225 260.075 7.23425 259.691 6.85825C259.315 6.48225 258.831 6.29425 258.239 6.29425C257.687 6.29425 257.215 6.48225 256.823 6.85825C256.431 7.23425 256.235 7.70625 256.235 8.27425C256.235 8.81825 256.423 9.28625 256.799 9.67825C257.175 10.0703 257.647 10.2663 258.215 10.2663ZM262.303 8.37025L263.323 8.22625C263.315 8.25825 263.311 8.33425 263.311 8.45425C263.311 8.99825 263.479 9.43825 263.815 9.77425C264.159 10.1023 264.639 10.2663 265.255 10.2663C265.911 10.2663 266.431 10.1063 266.815 9.78625C267.207 9.45825 267.403 9.02625 267.403 8.49025C267.403 7.97825 267.215 7.58625 266.839 7.31425C266.463 7.03425 265.947 6.89425 265.291 6.89425H264.487V5.99425H265.243C265.787 5.99425 266.211 5.87025 266.515 5.62225C266.819 5.37425 266.971 5.04225 266.971 4.62625C266.971 4.23425 266.819 3.92625 266.515 3.70225C266.211 3.47025 265.795 3.35425 265.267 3.35425C264.731 3.35425 264.319 3.49825 264.031 3.78625C263.751 4.06625 263.611 4.45025 263.611 4.93825L262.627 4.78225C262.643 4.11025 262.887 3.55025 263.359 3.10225C263.839 2.65425 264.471 2.43025 265.255 2.43025C266.103 2.43025 266.759 2.63425 267.223 3.04225C267.695 3.44225 267.931 3.94625 267.931 4.55425C267.931 5.33825 267.615 5.94225 266.983 6.36625C267.439 6.58225 267.787 6.87425 268.027 7.24225C268.267 7.61025 268.387 8.02625 268.387 8.49025C268.387 9.25025 268.107 9.89025 267.547 10.4103C266.987 10.9303 266.219 11.1903 265.243 11.1903C264.331 11.1903 263.611 10.9383 263.083 10.4343C262.563 9.92225 262.303 9.28625 262.303 8.52625V8.37025ZM272.727 2.43025C273.759 2.43025 274.547 2.83825 275.091 3.65425C275.635 4.46225 275.907 5.50225 275.907 6.77425C275.907 8.06225 275.643 9.12225 275.115 9.95425C274.603 10.7783 273.807 11.1903 272.727 11.1903C271.647 11.1903 270.839 10.7783 270.303 9.95425C269.775 9.12225 269.511 8.06225 269.511 6.77425C269.511 5.49425 269.783 4.45025 270.327 3.64225C270.879 2.83425 271.679 2.43025 272.727 2.43025ZM272.727 10.2663C273.439 10.2663 273.987 9.96625 274.371 9.36625C274.755 8.76625 274.947 7.90225 274.947 6.77425C274.947 5.69425 274.751 4.85425 274.359 4.25425C273.967 3.65425 273.423 3.35425 272.727 3.35425C272.007 3.35425 271.451 3.65025 271.059 4.24225C270.667 4.83425 270.471 5.67825 270.471 6.77425C270.471 7.90225 270.667 8.76625 271.059 9.36625C271.451 9.96625 272.007 10.2663 272.727 10.2663ZM276.926 8.16625L277.886 8.01025V8.15425C277.886 8.80225 278.078 9.31825 278.462 9.70225C278.846 10.0783 279.366 10.2663 280.022 10.2663C280.646 10.2663 281.138 10.0863 281.498 9.72625C281.858 9.36625 282.038 8.87825 282.038 8.26225C282.038 7.68625 281.862 7.22625 281.51 6.88225C281.158 6.53025 280.69 6.35425 280.106 6.35425C279.69 6.35425 279.338 6.42225 279.05 6.55825C278.77 6.69425 278.514 6.91825 278.282 7.23025L277.406 6.94225L277.862 2.61025H282.602V3.53425H278.726L278.462 6.03025C278.974 5.65425 279.542 5.46625 280.166 5.46625C281.006 5.46625 281.69 5.72625 282.218 6.24625C282.746 6.75825 283.01 7.43025 283.01 8.26225C283.01 9.14225 282.734 9.85025 282.182 10.3863C281.638 10.9223 280.918 11.1903 280.022 11.1903C279.102 11.1903 278.354 10.9263 277.778 10.3983C277.21 9.87025 276.926 9.18225 276.926 8.33425V8.16625ZM284.004 9.13825V8.31025L288.108 2.61025H288.96V8.25025H290.232V9.15025H288.96V11.0103H288V9.15025L284.004 9.13825ZM285.108 8.23825L288 8.25025V4.25425L285.108 8.23825ZM293.966 11.1903C293.158 11.1903 292.486 10.9423 291.95 10.4463C291.422 9.95025 291.154 9.31025 291.146 8.52625L292.13 8.37025C292.114 8.94625 292.27 9.40625 292.598 9.75025C292.934 10.0943 293.386 10.2663 293.954 10.2663C294.61 10.2663 295.13 9.99825 295.514 9.46225C295.906 8.92625 296.134 8.13425 296.198 7.08625C295.646 7.82225 294.89 8.19025 293.93 8.19025C293.122 8.19025 292.438 7.91825 291.878 7.37425C291.326 6.83025 291.05 6.15425 291.05 5.34625C291.05 4.53025 291.342 3.84225 291.926 3.28225C292.518 2.71425 293.23 2.43025 294.062 2.43025C295.014 2.43025 295.774 2.77025 296.342 3.45025C296.918 4.13025 297.206 5.11425 297.206 6.40225C297.206 7.93825 296.922 9.12225 296.354 9.95425C295.794 10.7783 294.998 11.1903 293.966 11.1903ZM294.062 3.35425C293.486 3.35425 292.998 3.55025 292.598 3.94225C292.206 4.32625 292.01 4.79825 292.01 5.35825C292.01 5.91825 292.198 6.38625 292.574 6.76225C292.958 7.13825 293.446 7.32625 294.038 7.32625C294.598 7.32625 295.07 7.14225 295.454 6.77425C295.846 6.39825 296.042 5.92225 296.042 5.34625C296.042 4.80225 295.854 4.33425 295.478 3.94225C295.102 3.55025 294.63 3.35425 294.062 3.35425Z" fill="#717070"/>
</svg>
