<svg width="366" height="54" viewBox="0 0 366 54" fill="none" xmlns="http://www.w3.org/2000/svg">
<rect width="366" height="53.0068" transform="translate(0 0.00341797)" fill="#040415"/>
<path d="M125.072 33.0103V21.8103H129.872C130.928 21.8103 131.765 22.1196 132.384 22.7383C133.003 23.3463 133.312 24.1303 133.312 25.0903C133.312 26.0823 133.003 26.8823 132.384 27.4903C131.776 28.0876 130.939 28.3863 129.872 28.3863H126.592V33.0103H125.072ZM126.592 26.9143H129.808C130.437 26.9143 130.923 26.7543 131.264 26.4343C131.616 26.1143 131.792 25.6663 131.792 25.0903C131.792 24.5143 131.616 24.0663 131.264 23.7463C130.923 23.4263 130.437 23.2663 129.808 23.2663H126.592V26.9143ZM136.484 28.3703L138.404 28.0503V27.7303C138.404 27.3143 138.254 26.9836 137.956 26.7383C137.668 26.4823 137.257 26.3543 136.724 26.3543C136.19 26.3543 135.774 26.4983 135.476 26.7863C135.177 27.0743 135.028 27.4636 135.028 27.9543L135.044 28.1783L133.604 28.0663C133.561 27.1276 133.833 26.3916 134.42 25.8583C135.017 25.3143 135.774 25.0423 136.692 25.0423C137.694 25.0423 138.468 25.2876 139.012 25.7783C139.566 26.2689 139.844 26.9463 139.844 27.8103V33.0103H138.42V32.0503C137.94 32.8503 137.204 33.2503 136.212 33.2503C135.38 33.2503 134.729 33.0263 134.26 32.5783C133.801 32.1196 133.572 31.5756 133.572 30.9463C133.572 30.2209 133.812 29.6503 134.292 29.2343C134.772 28.8183 135.502 28.5303 136.484 28.3703ZM136.5 31.8743C137.054 31.8743 137.508 31.6769 137.86 31.2823C138.222 30.8876 138.404 30.3703 138.404 29.7303V29.2823L136.708 29.5543C136.153 29.6609 135.732 29.8103 135.444 30.0023C135.156 30.1836 135.012 30.4449 135.012 30.7863C135.012 31.1169 135.145 31.3836 135.412 31.5863C135.678 31.7783 136.041 31.8743 136.5 31.8743ZM140.901 33.5223L142.357 33.3303C142.315 33.9916 142.48 34.5143 142.853 34.8983C143.237 35.2929 143.744 35.4903 144.373 35.4903C145.077 35.4903 145.643 35.2556 146.069 34.7863C146.496 34.3276 146.709 33.7089 146.709 32.9303V31.7143C146.123 32.4823 145.285 32.8716 144.197 32.8823C143.333 32.8716 142.656 32.6049 142.165 32.0823C141.685 31.5489 141.445 30.8183 141.445 29.8903L141.429 25.2983H142.949V29.5863C142.949 30.8663 143.525 31.5063 144.677 31.5063C145.285 31.5063 145.776 31.2876 146.149 30.8503C146.523 30.4023 146.709 29.7996 146.709 29.0423V25.2983H148.229V32.8663C148.229 34.0183 147.867 34.9676 147.141 35.7143C146.427 36.4609 145.504 36.8343 144.373 36.8343C143.328 36.8343 142.475 36.5249 141.813 35.9063C141.163 35.2983 140.859 34.5036 140.901 33.5223ZM152.869 25.2983H154.373L156.021 30.8503L157.701 25.2983H159.093L160.773 30.8663L162.421 25.2983H163.941L161.541 33.0103H160.053L158.405 27.5863L156.757 33.0103H155.237L152.869 25.2983ZM164.954 33.0103V25.2983H166.474V33.0103H164.954ZM165.706 22.0023C165.983 22.0023 166.218 22.1036 166.41 22.3063C166.612 22.5089 166.714 22.7489 166.714 23.0263C166.714 23.3143 166.612 23.5596 166.41 23.7623C166.218 23.9543 165.983 24.0503 165.706 24.0503C165.418 24.0503 165.172 23.9543 164.97 23.7623C164.778 23.5596 164.682 23.3143 164.682 23.0263C164.682 22.7489 164.778 22.5089 164.97 22.3063C165.172 22.1036 165.418 22.0023 165.706 22.0023ZM167.383 26.6423V25.2983H168.791V22.9943H170.311V25.2983H174.215V26.6423H170.311V30.3543C170.311 30.8343 170.429 31.2076 170.663 31.4743C170.909 31.7303 171.255 31.8583 171.703 31.8583C172.141 31.8583 172.477 31.6983 172.711 31.3783C172.957 31.0476 173.063 30.6103 173.031 30.0663L174.487 30.2103C174.53 31.1169 174.29 31.8529 173.767 32.4183C173.245 32.9729 172.573 33.2503 171.751 33.2503C170.834 33.2503 170.109 32.9889 169.575 32.4663C169.053 31.9436 168.791 31.2289 168.791 30.3223V26.6423H167.383ZM175.548 33.0103V21.8103H177.068V26.1943C177.665 25.4369 178.481 25.0583 179.516 25.0583C180.359 25.0583 181.015 25.3249 181.484 25.8583C181.964 26.3809 182.204 27.1009 182.204 28.0183V33.0103H180.684V28.3223C180.684 27.0636 180.14 26.4343 179.052 26.4343C178.444 26.4343 177.959 26.6529 177.596 27.0903C177.244 27.5169 177.068 28.1036 177.068 28.8503V33.0103H175.548Z" fill="white"/>
<path fill-rule="evenodd" clip-rule="evenodd" d="M207.917 31.97C208.408 31.22 208.592 30.8367 208.967 29.995C206.2 28.945 205.758 25.0033 208.492 23.495C207.658 22.445 206.483 21.8367 205.375 21.8367C204.575 21.8367 204.025 22.045 203.533 22.2367C203.117 22.395 202.742 22.5367 202.275 22.5367C201.775 22.5367 201.333 22.3783 200.867 22.2117C200.358 22.0283 199.825 21.8367 199.158 21.8367C197.917 21.8367 196.592 22.595 195.75 23.895C194.567 25.7283 194.775 29.1617 196.683 32.095C197.367 33.145 198.283 34.32 199.475 34.3367C199.975 34.345 200.3 34.195 200.658 34.0367C201.067 33.8533 201.508 33.6533 202.283 33.6533C203.058 33.645 203.492 33.8533 203.9 34.0367C204.25 34.195 204.567 34.345 205.058 34.3367C206.267 34.32 207.233 33.02 207.917 31.97Z" fill="white"/>
<path fill-rule="evenodd" clip-rule="evenodd" d="M205.2 17.6702C205.333 18.5868 204.958 19.4952 204.467 20.1285C203.942 20.8118 203.025 21.3452 202.142 21.3118C201.983 20.4285 202.392 19.5202 202.892 18.9118C203.45 18.2452 204.392 17.7285 205.2 17.6702Z" fill="white"/>
<path d="M215.278 32.0034V20.3671H219.426C220.331 20.3671 221.081 20.5318 221.676 20.8614C222.271 21.1909 222.716 21.6417 223.011 22.2136C223.307 22.7818 223.455 23.422 223.455 24.1341C223.455 24.85 223.305 25.4939 223.006 26.0659C222.71 26.6341 222.263 27.0849 221.665 27.4182C221.07 27.7477 220.322 27.9125 219.42 27.9125H216.568V26.4239H219.261C219.833 26.4239 220.297 26.3254 220.653 26.1284C221.009 25.9277 221.271 25.6549 221.438 25.3102C221.604 24.9655 221.688 24.5735 221.688 24.1341C221.688 23.6947 221.604 23.3046 221.438 22.9636C221.271 22.6227 221.008 22.3557 220.648 22.1625C220.292 21.9693 219.822 21.8727 219.239 21.8727H217.034V32.0034H215.278ZM227.518 32.1966C226.965 32.1966 226.465 32.0943 226.018 31.8898C225.571 31.6814 225.217 31.3803 224.956 30.9864C224.698 30.5924 224.569 30.1095 224.569 29.5375C224.569 29.0451 224.664 28.6398 224.853 28.3216C225.043 28.0034 225.298 27.7515 225.62 27.5659C225.942 27.3803 226.302 27.2402 226.7 27.1455C227.098 27.0508 227.503 26.9788 227.916 26.9296C228.439 26.8689 228.863 26.8197 229.189 26.7818C229.514 26.7402 229.751 26.6739 229.899 26.583C230.046 26.4921 230.12 26.3443 230.12 26.1398V26.1C230.12 25.6038 229.98 25.2193 229.7 24.9466C229.423 24.6739 229.01 24.5375 228.461 24.5375C227.889 24.5375 227.439 24.6644 227.109 24.9182C226.783 25.1682 226.558 25.4466 226.433 25.7534L224.836 25.3898C225.026 24.8595 225.302 24.4314 225.666 24.1057C226.033 23.7761 226.456 23.5375 226.933 23.3898C227.41 23.2383 227.912 23.1625 228.439 23.1625C228.787 23.1625 229.156 23.2042 229.546 23.2875C229.94 23.3671 230.308 23.5148 230.649 23.7307C230.993 23.9466 231.276 24.2553 231.495 24.6568C231.715 25.0546 231.825 25.5716 231.825 26.208V32.0034H230.166V30.8102H230.098C229.988 31.0299 229.823 31.2458 229.603 31.458C229.384 31.6701 229.101 31.8462 228.757 31.9864C228.412 32.1265 227.999 32.1966 227.518 32.1966ZM227.887 30.833C228.357 30.833 228.759 30.7402 229.092 30.5546C229.429 30.3689 229.685 30.1265 229.859 29.8273C230.037 29.5243 230.126 29.2004 230.126 28.8557V27.7307C230.065 27.7913 229.948 27.8481 229.774 27.9011C229.603 27.9504 229.408 27.9939 229.189 28.0318C228.969 28.0659 228.755 28.0981 228.546 28.1284C228.338 28.1549 228.164 28.1777 228.024 28.1966C227.694 28.2383 227.393 28.3083 227.12 28.4068C226.851 28.5053 226.635 28.6474 226.473 28.833C226.314 29.0148 226.234 29.2572 226.234 29.5602C226.234 29.9807 226.389 30.2989 226.7 30.5148C227.01 30.7269 227.406 30.833 227.887 30.833ZM234.529 35.2761C234.275 35.2761 234.044 35.2553 233.836 35.2136C233.628 35.1758 233.472 35.1341 233.37 35.0886L233.779 33.6966C234.09 33.7799 234.366 33.8159 234.609 33.8046C234.851 33.7932 235.065 33.7023 235.251 33.5318C235.44 33.3614 235.607 33.083 235.751 32.6966L235.961 32.1171L232.768 23.2761H234.586L236.796 30.0489H236.887L239.097 23.2761H240.921L237.324 33.1682C237.158 33.6227 236.946 34.0072 236.688 34.3216C236.431 34.6398 236.124 34.8784 235.768 35.0375C235.412 35.1966 234.999 35.2761 234.529 35.2761Z" fill="white"/>
</svg>
