<svg width="134" height="42" viewBox="0 0 134 42" fill="none" xmlns="http://www.w3.org/2000/svg">
<rect width="134" height="42" fill="#EF2C5A"/>
<path d="M9.66663 12.6667H11.1166C12.0166 12.6667 12.725 13.4417 12.65 14.3334L11.9583 22.6334C11.8416 23.9917 12.9166 25.1584 14.2833 25.1584H23.1583C24.3583 25.1584 25.4083 24.1751 25.5 22.9834L25.95 16.7334C26.05 15.3501 25 14.2251 23.6083 14.2251H12.85" stroke="white" stroke-width="1.5" stroke-miterlimit="10" stroke-linecap="round" stroke-linejoin="round"/>
<path d="M21.5417 29.3333C22.117 29.3333 22.5833 28.867 22.5833 28.2917C22.5833 27.7164 22.117 27.25 21.5417 27.25C20.9664 27.25 20.5 27.7164 20.5 28.2917C20.5 28.867 20.9664 29.3333 21.5417 29.3333Z" stroke="white" stroke-width="1.5" stroke-miterlimit="10" stroke-linecap="round" stroke-linejoin="round"/>
<path d="M14.875 29.3333C15.4503 29.3333 15.9167 28.867 15.9167 28.2917C15.9167 27.7164 15.4503 27.25 14.875 27.25C14.2997 27.25 13.8334 27.7164 13.8334 28.2917C13.8334 28.867 14.2997 29.3333 14.875 29.3333Z" stroke="white" stroke-width="1.5" stroke-miterlimit="10" stroke-linecap="round" stroke-linejoin="round"/>
<path d="M15.5 17.6667H25.5" stroke="white" stroke-width="1.5" stroke-miterlimit="10" stroke-linecap="round" stroke-linejoin="round"/>
<path d="M38.3279 26H36.4643L40.6518 14.3636H42.6802L46.8677 26H45.0041L41.7143 16.4773H41.6234L38.3279 26ZM38.6404 21.4432H44.6859V22.9205H38.6404V21.4432ZM51.6582 26.1705C50.9536 26.1705 50.3248 25.9905 49.7718 25.6307C49.2225 25.267 48.7907 24.75 48.4763 24.0795C48.1657 23.4053 48.0104 22.5966 48.0104 21.6534C48.0104 20.7102 48.1676 19.9034 48.482 19.233C48.8002 18.5625 49.2358 18.0492 49.7888 17.6932C50.3419 17.3371 50.9688 17.1591 51.6695 17.1591C52.2112 17.1591 52.6468 17.25 52.9763 17.4318C53.3097 17.6098 53.5672 17.8182 53.7491 18.0568C53.9347 18.2955 54.0786 18.5057 54.1809 18.6875H54.2832V14.3636H55.982V26H54.3229V24.642H54.1809C54.0786 24.8277 53.9309 25.0398 53.7377 25.2784C53.5483 25.517 53.2869 25.7254 52.9536 25.9034C52.6203 26.0814 52.1885 26.1705 51.6582 26.1705ZM52.0332 24.7216C52.5218 24.7216 52.9347 24.5928 53.2718 24.3352C53.6127 24.0739 53.8703 23.7121 54.0445 23.25C54.2225 22.7879 54.3116 22.25 54.3116 21.6364C54.3116 21.0303 54.2244 20.5 54.0502 20.0455C53.876 19.5909 53.6203 19.2367 53.2832 18.983C52.946 18.7292 52.5294 18.6023 52.0332 18.6023C51.5218 18.6023 51.0957 18.7348 50.7547 19C50.4138 19.2652 50.1563 19.6269 49.982 20.0852C49.8116 20.5436 49.7263 21.0606 49.7263 21.6364C49.7263 22.2197 49.8135 22.7443 49.9877 23.2102C50.1619 23.6761 50.4195 24.0455 50.7604 24.3182C51.1051 24.5871 51.5294 24.7216 52.0332 24.7216ZM61.7938 26.1705C61.0892 26.1705 60.4604 25.9905 59.9074 25.6307C59.3582 25.267 58.9264 24.75 58.612 24.0795C58.3014 23.4053 58.1461 22.5966 58.1461 21.6534C58.1461 20.7102 58.3032 19.9034 58.6176 19.233C58.9358 18.5625 59.3714 18.0492 59.9245 17.6932C60.4775 17.3371 61.1044 17.1591 61.8051 17.1591C62.3468 17.1591 62.7824 17.25 63.112 17.4318C63.4453 17.6098 63.7029 17.8182 63.8847 18.0568C64.0703 18.2955 64.2142 18.5057 64.3165 18.6875H64.4188V14.3636H66.1176V26H64.4586V24.642H64.3165C64.2142 24.8277 64.0665 25.0398 63.8733 25.2784C63.6839 25.517 63.4226 25.7254 63.0892 25.9034C62.7559 26.0814 62.3241 26.1705 61.7938 26.1705ZM62.1688 24.7216C62.6574 24.7216 63.0703 24.5928 63.4074 24.3352C63.7483 24.0739 64.0059 23.7121 64.1801 23.25C64.3582 22.7879 64.4472 22.25 64.4472 21.6364C64.4472 21.0303 64.3601 20.5 64.1858 20.0455C64.0116 19.5909 63.7559 19.2367 63.4188 18.983C63.0817 18.7292 62.665 18.6023 62.1688 18.6023C61.6574 18.6023 61.2313 18.7348 60.8904 19C60.5495 19.2652 60.2919 19.6269 60.1176 20.0852C59.9472 20.5436 59.862 21.0606 59.862 21.6364C59.862 22.2197 59.9491 22.7443 60.1233 23.2102C60.2976 23.6761 60.5551 24.0455 60.8961 24.3182C61.2407 24.5871 61.665 24.7216 62.1688 24.7216ZM77.0906 17.2727V18.6364H72.3236V17.2727H77.0906ZM73.602 15.1818H75.3008V23.4375C75.3008 23.767 75.3501 24.0152 75.4486 24.1818C75.547 24.3447 75.6739 24.4564 75.8292 24.517C75.9883 24.5739 76.1607 24.6023 76.3463 24.6023C76.4826 24.6023 76.602 24.5928 76.7042 24.5739C76.8065 24.5549 76.8861 24.5398 76.9429 24.5284L77.2497 25.9318C77.1512 25.9697 77.0111 26.0076 76.8292 26.0455C76.6474 26.0871 76.4201 26.1098 76.1474 26.1136C75.7004 26.1212 75.2838 26.0417 74.8974 25.875C74.5111 25.7083 74.1986 25.4508 73.9599 25.1023C73.7213 24.7538 73.602 24.3163 73.602 23.7898V15.1818ZM82.6722 26.1761C81.8541 26.1761 81.14 25.9886 80.5302 25.6136C79.9203 25.2386 79.4469 24.714 79.1097 24.0398C78.7726 23.3655 78.6041 22.5777 78.6041 21.6761C78.6041 20.7708 78.7726 19.9792 79.1097 19.3011C79.4469 18.6231 79.9203 18.0966 80.5302 17.7216C81.14 17.3466 81.8541 17.1591 82.6722 17.1591C83.4904 17.1591 84.2044 17.3466 84.8143 17.7216C85.4241 18.0966 85.8976 18.6231 86.2347 19.3011C86.5719 19.9792 86.7404 20.7708 86.7404 21.6761C86.7404 22.5777 86.5719 23.3655 86.2347 24.0398C85.8976 24.714 85.4241 25.2386 84.8143 25.6136C84.2044 25.9886 83.4904 26.1761 82.6722 26.1761ZM82.6779 24.75C83.2082 24.75 83.6476 24.6098 83.9961 24.3295C84.3446 24.0492 84.6022 23.6761 84.7688 23.2102C84.9393 22.7443 85.0245 22.2311 85.0245 21.6705C85.0245 21.1136 84.9393 20.6023 84.7688 20.1364C84.6022 19.6667 84.3446 19.2898 83.9961 19.0057C83.6476 18.7216 83.2082 18.5795 82.6779 18.5795C82.1438 18.5795 81.7007 18.7216 81.3484 19.0057C80.9999 19.2898 80.7404 19.6667 80.57 20.1364C80.4033 20.6023 80.32 21.1136 80.32 21.6705C80.32 22.2311 80.4033 22.7443 80.57 23.2102C80.7404 23.6761 80.9999 24.0492 81.3484 24.3295C81.7007 24.6098 82.1438 24.75 82.6779 24.75ZM102.912 18.1477H101.14C101.071 17.7689 100.944 17.4356 100.759 17.1477C100.573 16.8598 100.346 16.6155 100.077 16.4148C99.8081 16.214 99.5069 16.0625 99.1736 15.9602C98.8441 15.858 98.4937 15.8068 98.1225 15.8068C97.452 15.8068 96.8516 15.9754 96.3213 16.3125C95.7948 16.6496 95.3782 17.1439 95.0713 17.7955C94.7683 18.447 94.6168 19.2424 94.6168 20.1818C94.6168 21.1288 94.7683 21.928 95.0713 22.5795C95.3782 23.2311 95.7967 23.7235 96.327 24.0568C96.8573 24.3902 97.4539 24.5568 98.1168 24.5568C98.4842 24.5568 98.8327 24.5076 99.1622 24.4091C99.4956 24.3068 99.7967 24.1572 100.066 23.9602C100.335 23.7633 100.562 23.5227 100.747 23.2386C100.937 22.9508 101.068 22.6212 101.14 22.25L102.912 22.2557C102.818 22.8277 102.634 23.3542 102.361 23.8352C102.092 24.3125 101.746 24.7254 101.321 25.0739C100.901 25.4186 100.42 25.6856 99.8782 25.875C99.3365 26.0644 98.7456 26.1591 98.1054 26.1591C97.0979 26.1591 96.2001 25.9205 95.4122 25.4432C94.6244 24.9621 94.0032 24.2746 93.5486 23.3807C93.0979 22.4867 92.8725 21.4205 92.8725 20.1818C92.8725 18.9394 93.0997 17.8731 93.5543 16.983C94.0088 16.089 94.63 15.4034 95.4179 14.9261C96.2058 14.4451 97.1016 14.2045 98.1054 14.2045C98.7229 14.2045 99.2986 14.2936 99.8327 14.4716C100.371 14.6458 100.854 14.9034 101.282 15.2443C101.71 15.5814 102.064 15.9943 102.344 16.483C102.624 16.9678 102.814 17.5227 102.912 18.1477ZM107.537 26.1932C106.983 26.1932 106.483 26.0909 106.037 25.8864C105.59 25.678 105.235 25.3769 104.974 24.983C104.716 24.589 104.588 24.1061 104.588 23.5341C104.588 23.0417 104.682 22.6364 104.872 22.3182C105.061 22 105.317 21.7481 105.639 21.5625C105.961 21.3769 106.321 21.2367 106.718 21.142C107.116 21.0473 107.521 20.9754 107.934 20.9261C108.457 20.8655 108.881 20.8163 109.207 20.7784C109.533 20.7367 109.769 20.6705 109.917 20.5795C110.065 20.4886 110.139 20.3409 110.139 20.1364V20.0966C110.139 19.6004 109.999 19.2159 109.718 18.9432C109.442 18.6705 109.029 18.5341 108.48 18.5341C107.908 18.5341 107.457 18.661 107.127 18.9148C106.802 19.1648 106.576 19.4432 106.451 19.75L104.855 19.3864C105.044 18.8561 105.321 18.428 105.684 18.1023C106.052 17.7727 106.474 17.5341 106.951 17.3864C107.429 17.2348 107.93 17.1591 108.457 17.1591C108.805 17.1591 109.175 17.2008 109.565 17.2841C109.959 17.3636 110.326 17.5114 110.667 17.7273C111.012 17.9432 111.294 18.2519 111.514 18.6534C111.733 19.0511 111.843 19.5682 111.843 20.2045V26H110.184V24.8068H110.116C110.006 25.0265 109.841 25.2424 109.622 25.4545C109.402 25.6667 109.12 25.8428 108.775 25.983C108.43 26.1231 108.018 26.1932 107.537 26.1932ZM107.906 24.8295C108.376 24.8295 108.777 24.7367 109.11 24.5511C109.447 24.3655 109.703 24.1231 109.877 23.8239C110.055 23.5208 110.144 23.197 110.144 22.8523V21.7273C110.084 21.7879 109.966 21.8447 109.792 21.8977C109.622 21.947 109.427 21.9905 109.207 22.0284C108.987 22.0625 108.773 22.0947 108.565 22.125C108.357 22.1515 108.182 22.1742 108.042 22.1932C107.713 22.2348 107.412 22.3049 107.139 22.4034C106.87 22.5019 106.654 22.6439 106.491 22.8295C106.332 23.0114 106.252 23.2538 106.252 23.5568C106.252 23.9773 106.408 24.2955 106.718 24.5114C107.029 24.7235 107.425 24.8295 107.906 24.8295ZM114.226 26V17.2727H115.868V18.6591H115.959C116.118 18.1894 116.398 17.8201 116.8 17.5511C117.205 17.2784 117.664 17.142 118.175 17.142C118.281 17.142 118.406 17.1458 118.55 17.1534C118.698 17.161 118.813 17.1705 118.897 17.1818V18.8068C118.828 18.7879 118.707 18.767 118.533 18.7443C118.359 18.7178 118.184 18.7045 118.01 18.7045C117.609 18.7045 117.251 18.7898 116.936 18.9602C116.626 19.1269 116.38 19.3598 116.198 19.6591C116.016 19.9545 115.925 20.2917 115.925 20.6705V26H114.226ZM125.076 17.2727V18.6364H120.309V17.2727H125.076ZM121.588 15.1818H123.286V23.4375C123.286 23.767 123.336 24.0152 123.434 24.1818C123.533 24.3447 123.66 24.4564 123.815 24.517C123.974 24.5739 124.146 24.6023 124.332 24.6023C124.468 24.6023 124.588 24.5928 124.69 24.5739C124.792 24.5549 124.872 24.5398 124.928 24.5284L125.235 25.9318C125.137 25.9697 124.997 26.0076 124.815 26.0455C124.633 26.0871 124.406 26.1098 124.133 26.1136C123.686 26.1212 123.269 26.0417 122.883 25.875C122.497 25.7083 122.184 25.4508 121.946 25.1023C121.707 24.7538 121.588 24.3163 121.588 23.7898V15.1818Z" fill="white"/>
</svg>
