<svg width="366" height="51" viewBox="0 0 366 51" fill="none" xmlns="http://www.w3.org/2000/svg">
<rect width="366" height="50" transform="translate(0 0.0102539)" fill="#EF2C5A"/>
<path d="M111.603 18.5703C112.841 18.5703 113.891 18.9116 114.755 19.5943C115.63 20.2769 116.174 21.1729 116.387 22.2823L114.963 22.7143C114.814 21.8929 114.435 21.2423 113.827 20.7623C113.23 20.2716 112.489 20.0263 111.603 20.0263C110.43 20.0263 109.459 20.4369 108.691 21.2583C107.934 22.0689 107.555 23.0556 107.555 24.2183C107.555 25.5729 107.939 26.6769 108.707 27.5303C109.486 28.3729 110.499 28.7943 111.747 28.7943C112.729 28.7943 113.571 28.5009 114.275 27.9143C114.99 27.3169 115.395 26.5489 115.491 25.6103L116.995 25.9143C116.878 27.1623 116.313 28.2023 115.299 29.0343C114.297 29.8663 113.118 30.2716 111.763 30.2503C110.078 30.2716 108.697 29.7276 107.619 28.6183C106.542 27.5089 106.014 26.1169 106.035 24.4423C106.014 22.7783 106.531 21.3756 107.587 20.2343C108.643 19.0929 109.982 18.5383 111.603 18.5703ZM121.787 22.0583C122.939 22.0583 123.889 22.4529 124.635 23.2423C125.382 24.0316 125.755 25.0076 125.755 26.1703C125.755 27.3329 125.382 28.3036 124.635 29.0823C123.889 29.8609 122.939 30.2503 121.787 30.2503C120.625 30.2503 119.665 29.8609 118.907 29.0823C118.15 28.3036 117.771 27.3329 117.771 26.1703C117.771 25.0076 118.15 24.0316 118.907 23.2423C119.665 22.4529 120.625 22.0583 121.787 22.0583ZM119.995 28.0423C120.465 28.5436 121.057 28.7943 121.771 28.7943C122.486 28.7943 123.073 28.5489 123.531 28.0583C124.001 27.5569 124.235 26.9276 124.235 26.1703C124.235 25.4023 124.001 24.7676 123.531 24.2663C123.073 23.7649 122.486 23.5143 121.771 23.5143C121.057 23.5143 120.465 23.7703 119.995 24.2823C119.526 24.7836 119.291 25.4129 119.291 26.1703C119.291 26.9169 119.526 27.5409 119.995 28.0423ZM126.93 30.0103V22.2983H128.45V23.1943C129.048 22.4369 129.864 22.0583 130.898 22.0583C131.741 22.0583 132.397 22.3249 132.866 22.8583C133.346 23.3809 133.586 24.1009 133.586 25.0183V30.0103H132.066V25.3223C132.066 24.0636 131.522 23.4343 130.434 23.4343C129.826 23.4343 129.341 23.6529 128.978 24.0903C128.626 24.5169 128.45 25.1036 128.45 25.8503V30.0103H126.93ZM134.172 23.6423V22.2983H135.58V19.9943H137.1V22.2983H141.004V23.6423H137.1V27.3543C137.1 27.8343 137.218 28.2076 137.452 28.4743C137.698 28.7303 138.044 28.8583 138.492 28.8583C138.93 28.8583 139.266 28.6983 139.5 28.3783C139.746 28.0476 139.852 27.6103 139.82 27.0663L141.276 27.2103C141.319 28.1169 141.079 28.8529 140.556 29.4183C140.034 29.9729 139.362 30.2503 138.54 30.2503C137.623 30.2503 136.898 29.9889 136.364 29.4663C135.842 28.9436 135.58 28.2289 135.58 27.3223V23.6423H134.172ZM142.415 30.0103V22.2983H143.935V30.0103H142.415ZM143.167 19.0023C143.445 19.0023 143.679 19.1036 143.871 19.3063C144.074 19.5089 144.175 19.7489 144.175 20.0263C144.175 20.3143 144.074 20.5596 143.871 20.7623C143.679 20.9543 143.445 21.0503 143.167 21.0503C142.879 21.0503 142.634 20.9543 142.431 20.7623C142.239 20.5596 142.143 20.3143 142.143 20.0263C142.143 19.7489 142.239 19.5089 142.431 19.3063C142.634 19.1036 142.879 19.0023 143.167 19.0023ZM145.533 30.0103V22.2983H147.053V23.1943C147.65 22.4369 148.466 22.0583 149.501 22.0583C150.343 22.0583 150.999 22.3249 151.469 22.8583C151.949 23.3809 152.189 24.1009 152.189 25.0183V30.0103H150.669V25.3223C150.669 24.0636 150.125 23.4343 149.037 23.4343C148.429 23.4343 147.943 23.6529 147.581 24.0903C147.229 24.5169 147.053 25.1036 147.053 25.8503V30.0103H145.533ZM160.415 22.2983V30.0103H158.895V29.1143C158.298 29.8716 157.482 30.2503 156.447 30.2503C155.605 30.2503 154.943 29.9889 154.463 29.4663C153.994 28.9329 153.759 28.2076 153.759 27.2903V22.2983H155.279V26.9863C155.279 28.2449 155.823 28.8743 156.911 28.8743C157.519 28.8743 157.999 28.6609 158.351 28.2343C158.714 27.7969 158.895 27.2049 158.895 26.4583V22.2983H160.415ZM165.378 22.0583C166.412 22.0583 167.244 22.3996 167.874 23.0823C168.514 23.7543 168.834 24.6289 168.834 25.7063V26.4423H163.01C163.084 27.1889 163.346 27.7863 163.794 28.2343C164.242 28.6716 164.807 28.8903 165.49 28.8903C166.044 28.8903 166.519 28.7303 166.914 28.4103C167.308 28.0796 167.543 27.6476 167.618 27.1143L169.058 27.3703C168.93 28.2236 168.53 28.9169 167.858 29.4503C167.186 29.9836 166.386 30.2503 165.458 30.2503C164.306 30.2503 163.372 29.8663 162.658 29.0983C161.943 28.3303 161.586 27.3543 161.586 26.1703C161.586 24.9863 161.938 24.0049 162.642 23.2263C163.346 22.4476 164.258 22.0583 165.378 22.0583ZM163.09 25.2263H167.442C167.42 24.6929 167.218 24.2556 166.834 23.9143C166.46 23.5623 165.975 23.3863 165.378 23.3863C164.812 23.3863 164.322 23.5569 163.906 23.8983C163.5 24.2289 163.228 24.6716 163.09 25.2263ZM173.27 22.2983H174.774L176.422 27.8503L178.102 22.2983H179.494L181.174 27.8663L182.822 22.2983H184.342L181.942 30.0103H180.454L178.806 24.5863L177.158 30.0103H175.638L173.27 22.2983ZM185.355 30.0103V22.2983H186.875V30.0103H185.355ZM186.107 19.0023C186.384 19.0023 186.619 19.1036 186.811 19.3063C187.013 19.5089 187.115 19.7489 187.115 20.0263C187.115 20.3143 187.013 20.5596 186.811 20.7623C186.619 20.9543 186.384 21.0503 186.107 21.0503C185.819 21.0503 185.573 20.9543 185.371 20.7623C185.179 20.5596 185.083 20.3143 185.083 20.0263C185.083 19.7489 185.179 19.5089 185.371 19.3063C185.573 19.1036 185.819 19.0023 186.107 19.0023ZM187.784 23.6423V22.2983H189.192V19.9943H190.712V22.2983H194.616V23.6423H190.712V27.3543C190.712 27.8343 190.83 28.2076 191.064 28.4743C191.31 28.7303 191.656 28.8583 192.104 28.8583C192.542 28.8583 192.878 28.6983 193.112 28.3783C193.358 28.0476 193.464 27.6103 193.432 27.0663L194.888 27.2103C194.931 28.1169 194.691 28.8529 194.168 29.4183C193.646 29.9729 192.974 30.2503 192.152 30.2503C191.235 30.2503 190.51 29.9889 189.976 29.4663C189.454 28.9436 189.192 28.2289 189.192 27.3223V23.6423H187.784ZM195.949 30.0103V18.8103H197.469V23.1943C198.066 22.4369 198.882 22.0583 199.917 22.0583C200.76 22.0583 201.416 22.3249 201.885 22.8583C202.365 23.3809 202.605 24.1009 202.605 25.0183V30.0103H201.085V25.3223C201.085 24.0636 200.541 23.4343 199.453 23.4343C198.845 23.4343 198.36 23.6529 197.997 24.0903C197.645 24.5169 197.469 25.1036 197.469 25.8503V30.0103H195.949Z" fill="white"/>
<g clip-path="url(#clip0_24_3884)">
<path d="M219.919 31.2846C218.58 31.2846 217.379 30.4562 216.892 29.1976L216.261 27.5693C216.196 27.4214 216.128 27.3256 216.055 27.2812C215.982 27.2367 215.863 27.2145 215.699 27.2145H215.418L215.252 28.591C215.066 30.1286 213.774 31.2846 212.24 31.2846L213.528 20.7034C213.715 19.1658 215.008 18.0103 216.542 18.0103L215.638 25.45H215.822C215.974 25.45 216.097 25.4264 216.191 25.3793C216.284 25.3321 216.378 25.2463 216.472 25.122L217.791 23.2963C218.332 22.5482 219.192 22.1035 220.109 22.0985L221.652 22.0895L219.106 25.3616C218.989 25.5154 218.86 25.6515 218.719 25.7694C218.579 25.8879 218.432 25.9913 218.281 26.0798C218.404 26.1805 218.51 26.2971 218.601 26.43C218.692 26.563 218.772 26.7154 218.842 26.8869L220.668 31.2851H219.919V31.2846Z" fill="white"/>
<path d="M221.635 31.2846L222.908 20.7039C223.093 19.1663 224.386 18.0103 225.92 18.0103L224.646 28.591C224.461 30.1286 223.168 31.2846 221.635 31.2846Z" fill="white"/>
<path d="M236.965 29.2365C237.089 29.3195 237.235 29.3962 237.404 29.467C237.574 29.5377 237.797 29.5736 238.072 29.5736C238.458 29.5736 238.745 29.4865 238.932 29.3118C239.119 29.1376 239.213 28.9321 239.213 28.6957C239.213 28.5124 239.164 28.3618 239.068 28.2433C238.971 28.1249 238.844 28.0233 238.686 27.9375C238.528 27.8518 238.349 27.7751 238.15 27.7071C237.951 27.6395 237.746 27.5637 237.536 27.4811C237.325 27.3985 237.12 27.3024 236.921 27.193C236.722 27.0837 236.544 26.9462 236.385 26.7806C236.227 26.615 236.1 26.4113 236.004 26.1686C235.907 25.9263 235.858 25.6336 235.858 25.2906C235.858 24.8651 235.936 24.4513 236.091 24.0493C236.246 23.6473 236.478 23.2912 236.785 22.9809C237.092 22.6705 237.474 22.421 237.93 22.2318C238.387 22.0426 238.92 21.9482 239.528 21.9482C240.137 21.9482 240.68 22.0544 241.158 22.2676C241.635 22.4804 242.028 22.7409 242.339 23.048L241.781 23.7644C241.455 24.1836 240.879 24.3093 240.411 24.0634C240.28 23.9953 240.131 23.935 239.963 23.8815C239.797 23.8284 239.605 23.8016 239.388 23.8016C238.984 23.8016 238.696 23.8801 238.524 24.0366C238.351 24.1936 238.264 24.3959 238.264 24.6441C238.264 24.8038 238.312 24.9399 238.409 25.052C238.506 25.1645 238.633 25.2648 238.791 25.3537C238.949 25.4422 239.129 25.5239 239.331 25.5974C239.533 25.6713 239.739 25.7543 239.95 25.8455C240.161 25.9372 240.367 26.042 240.569 26.1604C240.771 26.2788 240.951 26.4235 241.109 26.595C241.267 26.7665 241.394 26.9707 241.491 27.2071C241.588 27.4435 241.636 27.7243 241.636 28.0496C241.636 28.5106 241.545 28.9466 241.363 29.3576C241.182 29.7687 240.921 30.1262 240.582 30.4306C240.242 30.7351 239.831 30.9773 239.348 31.1579C238.865 31.3381 238.323 31.4284 237.72 31.4284C237.447 31.4284 237.174 31.402 236.906 31.3475C236.611 31.2877 236.333 31.2055 236.073 31.1003C235.824 30.9996 235.598 30.8802 235.393 30.741C235.188 30.6021 235.021 30.4529 234.892 30.2932L235.403 29.5355C235.753 29.0164 236.453 28.8831 236.965 29.2365Z" fill="white"/>
<path d="M242.426 31.2846L243.696 20.7393C243.883 19.1813 245.193 18.0103 246.747 18.0103L246.106 23.2954C246.521 22.8345 246.96 22.4946 247.423 22.2755C247.885 22.0568 248.362 21.9475 248.854 21.9475C249.193 21.9475 249.508 22.0096 249.798 22.1335C250.088 22.2578 250.335 22.4393 250.54 22.6788C250.745 22.9184 250.905 23.2124 251.023 23.5613C251.14 23.9102 251.198 24.3122 251.198 24.7672C251.198 24.8738 251.194 24.9832 251.185 25.0952C251.177 25.2078 251.166 25.323 251.155 25.441L250.47 31.2846H247.748L248.433 25.441C248.444 25.3466 248.453 25.259 248.459 25.1796C248.465 25.0998 248.468 25.0245 248.468 24.9537C248.468 24.6343 248.412 24.4129 248.301 24.2886C248.19 24.1643 248.023 24.1025 247.801 24.1025C247.62 24.1025 247.429 24.1574 247.23 24.2668C247.031 24.3761 246.84 24.5313 246.655 24.7323C246.471 24.9333 246.298 25.1755 246.137 25.4596C245.976 25.7431 245.843 26.0598 245.738 26.4082L245.479 28.5565C245.29 30.1136 243.98 31.2846 242.426 31.2846Z" fill="white"/>
<path d="M259.654 31.2841H258.196C258.027 31.2841 257.885 31.2619 257.771 31.2175C257.656 31.173 257.566 31.1126 257.498 31.0355C257.431 30.9588 257.384 30.8672 257.358 30.7606C257.331 30.654 257.318 30.5387 257.318 30.4149V29.7588C256.943 30.2792 256.528 30.6871 256.071 30.9824C255.615 31.2782 255.111 31.4257 254.561 31.4257C254.233 31.4257 253.917 31.359 253.613 31.2261C253.308 31.0931 253.039 30.8921 252.805 30.6231C252.571 30.3541 252.383 30.0111 252.243 29.5946C252.102 29.1776 252.032 28.6858 252.032 28.1182C252.032 27.2848 252.182 26.494 252.484 25.7463C252.786 24.9986 253.207 24.3439 253.749 23.7822C254.29 23.2205 254.932 22.7745 255.676 22.4433C256.419 22.1121 257.236 21.9465 258.126 21.9465C258.559 21.9465 258.998 21.976 259.443 22.035C259.888 22.094 260.327 22.2006 260.76 22.3544L259.654 31.2841ZM255.65 29.2534C255.849 29.2534 256.042 29.1781 256.229 29.0274C256.417 28.8768 256.594 28.6713 256.761 28.4113C256.927 28.1513 257.081 27.8469 257.222 27.498C257.223 27.4944 257.224 27.4912 257.225 27.4876C257.447 26.9359 257.585 26.3538 257.658 25.7631L257.898 23.8362H257.739C257.295 23.8362 256.889 23.9369 256.523 24.1379C256.158 24.3389 255.843 24.6125 255.579 24.9582C255.316 25.3039 255.113 25.7059 254.969 26.1641C254.826 26.6224 254.754 27.1115 254.754 27.6318C254.754 27.9277 254.777 28.1786 254.824 28.3854C254.871 28.5923 254.934 28.7593 255.013 28.8863C255.092 29.0134 255.185 29.1064 255.294 29.1658C255.403 29.2239 255.521 29.2534 255.65 29.2534Z" fill="white"/>
<path d="M233.7 31.2841H232.242C232.073 31.2841 231.931 31.2619 231.816 31.2175C231.702 31.173 231.612 31.1127 231.544 31.0355C231.477 30.9588 231.43 30.8672 231.404 30.7606C231.377 30.654 231.364 30.5387 231.364 30.4149V29.7588C230.989 30.2792 230.574 30.6871 230.117 30.9824C229.661 31.2783 229.157 31.4257 228.607 31.4257C228.279 31.4257 227.963 31.359 227.658 31.2261C227.354 31.0931 227.085 30.8922 226.851 30.6231C226.617 30.3541 226.429 30.0111 226.289 29.5946C226.148 29.1781 226.078 28.6858 226.078 28.1182C226.078 27.2848 226.228 26.494 226.53 25.7463C226.832 24.9986 227.253 24.3439 227.795 23.7822C228.336 23.2205 228.978 22.7745 229.722 22.4433C230.465 22.1121 231.282 21.9465 232.172 21.9465C232.605 21.9465 233.044 21.976 233.489 22.035C233.934 22.094 234.373 22.2006 234.806 22.3544L233.7 31.2841ZM229.695 29.2534C229.895 29.2534 230.088 29.1781 230.275 29.0274C230.462 28.8768 230.639 28.6713 230.806 28.4113C230.973 28.1513 231.126 27.8469 231.267 27.498C231.268 27.4944 231.27 27.4912 231.271 27.4876C231.493 26.9359 231.63 26.3538 231.704 25.7631L231.943 23.8362H231.785C231.34 23.8362 230.935 23.9369 230.569 24.1379C230.203 24.3389 229.888 24.6125 229.625 24.9582C229.362 25.3039 229.158 25.7059 229.015 26.1641C228.871 26.6224 228.8 27.1115 228.8 27.6319C228.8 27.9277 228.823 28.1786 228.87 28.3854C228.916 28.5923 228.979 28.7593 229.058 28.8863C229.137 29.0134 229.231 29.1064 229.339 29.1658C229.448 29.2239 229.566 29.2534 229.695 29.2534Z" fill="white"/>
</g>
<defs>
<clipPath id="clip0_24_3884">
<rect width="48.5205" height="13.4483" fill="white" transform="translate(212.24 18.0103)"/>
</clipPath>
</defs>
</svg>
