<svg width="345" height="52" viewBox="0 0 345 52" fill="none" xmlns="http://www.w3.org/2000/svg">
<rect width="345" height="52" fill="#EF2C5A"/>
<path d="M102.74 24.1477H100.967C100.899 23.7689 100.772 23.4356 100.587 23.1477C100.401 22.8598 100.174 22.6155 99.9048 22.4148C99.6359 22.214 99.3348 22.0625 99.0014 21.9602C98.6719 21.858 98.3215 21.8068 97.9503 21.8068C97.2798 21.8068 96.6795 21.9754 96.1491 22.3125C95.6226 22.6496 95.206 23.1439 94.8991 23.7955C94.5961 24.447 94.4446 25.2424 94.4446 26.1818C94.4446 27.1288 94.5961 27.928 94.8991 28.5795C95.206 29.2311 95.6245 29.7235 96.1548 30.0568C96.6851 30.3902 97.2817 30.5568 97.9446 30.5568C98.312 30.5568 98.6605 30.5076 98.9901 30.4091C99.3234 30.3068 99.6245 30.1572 99.8935 29.9602C100.162 29.7633 100.39 29.5227 100.575 29.2386C100.765 28.9508 100.895 28.6212 100.967 28.25L102.74 28.2557C102.645 28.8277 102.462 29.3542 102.189 29.8352C101.92 30.3125 101.573 30.7254 101.149 31.0739C100.729 31.4186 100.248 31.6856 99.706 31.875C99.1643 32.0644 98.5734 32.1591 97.9332 32.1591C96.9257 32.1591 96.0279 31.9205 95.2401 31.4432C94.4522 30.9621 93.831 30.2746 93.3764 29.3807C92.9257 28.4867 92.7003 27.4205 92.7003 26.1818C92.7003 24.9394 92.9276 23.8731 93.3821 22.983C93.8366 22.089 94.4579 21.4034 95.2457 20.9261C96.0336 20.4451 96.9295 20.2045 97.9332 20.2045C98.5507 20.2045 99.1264 20.2936 99.6605 20.4716C100.198 20.6458 100.681 20.9034 101.109 21.2443C101.537 21.5814 101.892 21.9943 102.172 22.483C102.452 22.9678 102.642 23.5227 102.74 24.1477ZM108.381 32.1761C107.563 32.1761 106.848 31.9886 106.239 31.6136C105.629 31.2386 105.155 30.714 104.818 30.0398C104.481 29.3655 104.312 28.5777 104.312 27.6761C104.312 26.7708 104.481 25.9792 104.818 25.3011C105.155 24.6231 105.629 24.0966 106.239 23.7216C106.848 23.3466 107.563 23.1591 108.381 23.1591C109.199 23.1591 109.913 23.3466 110.523 23.7216C111.133 24.0966 111.606 24.6231 111.943 25.3011C112.28 25.9792 112.449 26.7708 112.449 27.6761C112.449 28.5777 112.28 29.3655 111.943 30.0398C111.606 30.714 111.133 31.2386 110.523 31.6136C109.913 31.9886 109.199 32.1761 108.381 32.1761ZM108.386 30.75C108.917 30.75 109.356 30.6098 109.705 30.3295C110.053 30.0492 110.311 29.6761 110.477 29.2102C110.648 28.7443 110.733 28.2311 110.733 27.6705C110.733 27.1136 110.648 26.6023 110.477 26.1364C110.311 25.6667 110.053 25.2898 109.705 25.0057C109.356 24.7216 108.917 24.5795 108.386 24.5795C107.852 24.5795 107.409 24.7216 107.057 25.0057C106.708 25.2898 106.449 25.6667 106.278 26.1364C106.112 26.6023 106.028 27.1136 106.028 27.6705C106.028 28.2311 106.112 28.7443 106.278 29.2102C106.449 29.6761 106.708 30.0492 107.057 30.3295C107.409 30.6098 107.852 30.75 108.386 30.75ZM116.044 26.8182V32H114.345V23.2727H115.976V24.6932H116.084C116.285 24.2311 116.599 23.8598 117.027 23.5795C117.459 23.2992 118.002 23.1591 118.658 23.1591C119.252 23.1591 119.773 23.2841 120.22 23.5341C120.667 23.7803 121.014 24.1477 121.26 24.6364C121.506 25.125 121.629 25.7292 121.629 26.4489V32H119.93V26.6534C119.93 26.0208 119.766 25.5265 119.436 25.1705C119.107 24.8106 118.654 24.6307 118.078 24.6307C117.684 24.6307 117.334 24.7159 117.027 24.8864C116.724 25.0568 116.483 25.3068 116.305 25.6364C116.131 25.9621 116.044 26.3561 116.044 26.8182ZM127.982 23.2727V24.6364H123.214V23.2727H127.982ZM124.493 21.1818H126.192V29.4375C126.192 29.767 126.241 30.0152 126.339 30.1818C126.438 30.3447 126.565 30.4564 126.72 30.517C126.879 30.5739 127.052 30.6023 127.237 30.6023C127.374 30.6023 127.493 30.5928 127.595 30.5739C127.697 30.5549 127.777 30.5398 127.834 30.5284L128.141 31.9318C128.042 31.9697 127.902 32.0076 127.72 32.0455C127.538 32.0871 127.311 32.1098 127.038 32.1136C126.591 32.1212 126.175 32.0417 125.788 31.875C125.402 31.7083 125.089 31.4508 124.851 31.1023C124.612 30.7538 124.493 30.3163 124.493 29.7898V21.1818ZM129.861 32V23.2727H131.56V32H129.861ZM130.719 21.9261C130.423 21.9261 130.17 21.8277 129.957 21.6307C129.749 21.4299 129.645 21.1913 129.645 20.9148C129.645 20.6345 129.749 20.3958 129.957 20.1989C130.17 19.9981 130.423 19.8977 130.719 19.8977C131.014 19.8977 131.266 19.9981 131.474 20.1989C131.687 20.3958 131.793 20.6345 131.793 20.9148C131.793 21.1913 131.687 21.4299 131.474 21.6307C131.266 21.8277 131.014 21.9261 130.719 21.9261ZM135.544 26.8182V32H133.845V23.2727H135.476V24.6932H135.584C135.785 24.2311 136.099 23.8598 136.527 23.5795C136.959 23.2992 137.502 23.1591 138.158 23.1591C138.752 23.1591 139.273 23.2841 139.72 23.5341C140.167 23.7803 140.514 24.1477 140.76 24.6364C141.006 25.125 141.129 25.7292 141.129 26.4489V32H139.43V26.6534C139.43 26.0208 139.266 25.5265 138.936 25.1705C138.607 24.8106 138.154 24.6307 137.578 24.6307C137.184 24.6307 136.834 24.7159 136.527 24.8864C136.224 25.0568 135.983 25.3068 135.805 25.6364C135.631 25.9621 135.544 26.3561 135.544 26.8182ZM148.936 28.3807V23.2727H150.641V32H148.97V30.4886H148.879C148.679 30.9545 148.357 31.3428 147.913 31.6534C147.474 31.9602 146.927 32.1136 146.271 32.1136C145.711 32.1136 145.214 31.9905 144.783 31.7443C144.355 31.4943 144.018 31.125 143.771 30.6364C143.529 30.1477 143.408 29.5436 143.408 28.8239V23.2727H145.107V28.6193C145.107 29.214 145.271 29.6875 145.601 30.0398C145.93 30.392 146.358 30.5682 146.885 30.5682C147.203 30.5682 147.519 30.4886 147.834 30.3295C148.152 30.1705 148.415 29.9299 148.624 29.608C148.836 29.286 148.94 28.8769 148.936 28.3807ZM156.685 32.1761C155.825 32.1761 155.084 31.9924 154.463 31.625C153.846 31.2538 153.368 30.733 153.031 30.0625C152.698 29.3883 152.531 28.5985 152.531 27.6932C152.531 26.7992 152.698 26.0114 153.031 25.3295C153.368 24.6477 153.838 24.1155 154.44 23.733C155.046 23.3504 155.755 23.1591 156.565 23.1591C157.058 23.1591 157.535 23.2405 157.997 23.4034C158.459 23.5663 158.874 23.822 159.241 24.1705C159.609 24.5189 159.899 24.9716 160.111 25.5284C160.323 26.0814 160.429 26.7538 160.429 27.5455V28.1477H153.491V26.875H158.764C158.764 26.428 158.673 26.0322 158.491 25.6875C158.31 25.339 158.054 25.0644 157.724 24.8636C157.399 24.6629 157.016 24.5625 156.577 24.5625C156.099 24.5625 155.683 24.6799 155.327 24.9148C154.974 25.1458 154.702 25.4489 154.509 25.8239C154.319 26.1951 154.224 26.5985 154.224 27.0341V28.0284C154.224 28.6117 154.327 29.108 154.531 29.517C154.74 29.9261 155.029 30.2386 155.401 30.4545C155.772 30.6667 156.205 30.7727 156.702 30.7727C157.024 30.7727 157.317 30.7273 157.582 30.6364C157.848 30.5417 158.077 30.4015 158.27 30.2159C158.463 30.0303 158.611 29.8011 158.713 29.5284L160.321 29.8182C160.192 30.2917 159.961 30.7064 159.628 31.0625C159.298 31.4148 158.884 31.6894 158.384 31.8864C157.887 32.0795 157.321 32.1761 156.685 32.1761ZM170.622 23.2727V24.6364H165.855V23.2727H170.622ZM167.134 21.1818H168.832V29.4375C168.832 29.767 168.882 30.0152 168.98 30.1818C169.079 30.3447 169.205 30.4564 169.361 30.517C169.52 30.5739 169.692 30.6023 169.878 30.6023C170.014 30.6023 170.134 30.5928 170.236 30.5739C170.338 30.5549 170.418 30.5398 170.474 30.5284L170.781 31.9318C170.683 31.9697 170.543 32.0076 170.361 32.0455C170.179 32.0871 169.952 32.1098 169.679 32.1136C169.232 32.1212 168.815 32.0417 168.429 31.875C168.043 31.7083 167.73 31.4508 167.491 31.1023C167.253 30.7538 167.134 30.3163 167.134 29.7898V21.1818ZM176.084 32.1761C175.266 32.1761 174.552 31.9886 173.942 31.6136C173.332 31.2386 172.858 30.714 172.521 30.0398C172.184 29.3655 172.016 28.5777 172.016 27.6761C172.016 26.7708 172.184 25.9792 172.521 25.3011C172.858 24.6231 173.332 24.0966 173.942 23.7216C174.552 23.3466 175.266 23.1591 176.084 23.1591C176.902 23.1591 177.616 23.3466 178.226 23.7216C178.836 24.0966 179.309 24.6231 179.646 25.3011C179.983 25.9792 180.152 26.7708 180.152 27.6761C180.152 28.5777 179.983 29.3655 179.646 30.0398C179.309 30.714 178.836 31.2386 178.226 31.6136C177.616 31.9886 176.902 32.1761 176.084 32.1761ZM176.089 30.75C176.62 30.75 177.059 30.6098 177.408 30.3295C177.756 30.0492 178.014 29.6761 178.18 29.2102C178.351 28.7443 178.436 28.2311 178.436 27.6705C178.436 27.1136 178.351 26.6023 178.18 26.1364C178.014 25.6667 177.756 25.2898 177.408 25.0057C177.059 24.7216 176.62 24.5795 176.089 24.5795C175.555 24.5795 175.112 24.7216 174.76 25.0057C174.411 25.2898 174.152 25.6667 173.982 26.1364C173.815 26.6023 173.732 27.1136 173.732 27.6705C173.732 28.2311 173.815 28.7443 173.982 29.2102C174.152 29.6761 174.411 30.0492 174.76 30.3295C175.112 30.6098 175.555 30.75 176.089 30.75ZM186.419 32V20.3636H190.567C191.472 20.3636 192.222 20.5284 192.817 20.858C193.411 21.1875 193.857 21.6383 194.152 22.2102C194.447 22.7784 194.595 23.4186 194.595 24.1307C194.595 24.8466 194.446 25.4905 194.146 26.0625C193.851 26.6307 193.404 27.0814 192.805 27.4148C192.211 27.7443 191.463 27.9091 190.561 27.9091H187.709V26.4205H190.402C190.974 26.4205 191.438 26.322 191.794 26.125C192.15 25.9242 192.411 25.6515 192.578 25.3068C192.745 24.9621 192.828 24.5701 192.828 24.1307C192.828 23.6913 192.745 23.3011 192.578 22.9602C192.411 22.6193 192.148 22.3523 191.788 22.1591C191.432 21.9659 190.963 21.8693 190.379 21.8693H188.175V32H186.419ZM198.979 32.1932C198.426 32.1932 197.926 32.0909 197.479 31.8864C197.032 31.678 196.678 31.3769 196.416 30.983C196.159 30.589 196.03 30.1061 196.03 29.5341C196.03 29.0417 196.125 28.6364 196.314 28.3182C196.503 28 196.759 27.7481 197.081 27.5625C197.403 27.3769 197.763 27.2367 198.161 27.142C198.558 27.0473 198.964 26.9754 199.376 26.9261C199.899 26.8655 200.323 26.8163 200.649 26.7784C200.975 26.7367 201.212 26.6705 201.359 26.5795C201.507 26.4886 201.581 26.3409 201.581 26.1364V26.0966C201.581 25.6004 201.441 25.2159 201.161 24.9432C200.884 24.6705 200.471 24.5341 199.922 24.5341C199.35 24.5341 198.899 24.661 198.57 24.9148C198.244 25.1648 198.018 25.4432 197.893 25.75L196.297 25.3864C196.486 24.8561 196.763 24.428 197.126 24.1023C197.494 23.7727 197.916 23.5341 198.393 23.3864C198.871 23.2348 199.373 23.1591 199.899 23.1591C200.248 23.1591 200.617 23.2008 201.007 23.2841C201.401 23.3636 201.768 23.5114 202.109 23.7273C202.454 23.9432 202.736 24.2519 202.956 24.6534C203.176 25.0511 203.286 25.5682 203.286 26.2045V32H201.626V30.8068H201.558C201.448 31.0265 201.284 31.2424 201.064 31.4545C200.844 31.6667 200.562 31.8428 200.217 31.983C199.873 32.1231 199.46 32.1932 198.979 32.1932ZM199.348 30.8295C199.818 30.8295 200.219 30.7367 200.553 30.5511C200.89 30.3655 201.145 30.1231 201.32 29.8239C201.498 29.5208 201.587 29.197 201.587 28.8523V27.7273C201.526 27.7879 201.409 27.8447 201.234 27.8977C201.064 27.947 200.869 27.9905 200.649 28.0284C200.429 28.0625 200.215 28.0947 200.007 28.125C199.799 28.1515 199.625 28.1742 199.484 28.1932C199.155 28.2348 198.854 28.3049 198.581 28.4034C198.312 28.5019 198.096 28.6439 197.933 28.8295C197.774 29.0114 197.695 29.2538 197.695 29.5568C197.695 29.9773 197.85 30.2955 198.161 30.5114C198.471 30.7235 198.867 30.8295 199.348 30.8295ZM206.31 35.2727C206.056 35.2727 205.825 35.2519 205.616 35.2102C205.408 35.1723 205.253 35.1307 205.151 35.0852L205.56 33.6932C205.87 33.7765 206.147 33.8125 206.389 33.8011C206.632 33.7898 206.846 33.6989 207.031 33.5284C207.221 33.358 207.387 33.0795 207.531 32.6932L207.741 32.1136L204.548 23.2727H206.366L208.577 30.0455H208.668L210.878 23.2727H212.702L209.105 33.1648C208.938 33.6193 208.726 34.0038 208.469 34.3182C208.211 34.6364 207.904 34.875 207.548 35.0341C207.192 35.1932 206.779 35.2727 206.31 35.2727ZM214.298 32V23.2727H215.929V24.6932H216.037C216.219 24.2121 216.516 23.8371 216.929 23.5682C217.342 23.2955 217.836 23.1591 218.412 23.1591C218.995 23.1591 219.484 23.2955 219.878 23.5682C220.276 23.8409 220.569 24.2159 220.759 24.6932H220.849C221.058 24.2273 221.389 23.8561 221.844 23.5795C222.298 23.2992 222.84 23.1591 223.469 23.1591C224.26 23.1591 224.906 23.4072 225.406 23.9034C225.91 24.3996 226.162 25.1477 226.162 26.1477V32H224.463V26.3068C224.463 25.7159 224.302 25.2879 223.98 25.0227C223.658 24.7576 223.274 24.625 222.827 24.625C222.274 24.625 221.844 24.7955 221.537 25.1364C221.23 25.4735 221.077 25.9072 221.077 26.4375V32H219.384V26.1989C219.384 25.7254 219.236 25.3447 218.94 25.0568C218.645 24.7689 218.26 24.625 217.787 24.625C217.465 24.625 217.168 24.7102 216.895 24.8807C216.626 25.0473 216.408 25.2803 216.241 25.5795C216.079 25.8788 215.997 26.2254 215.997 26.6193V32H214.298ZM232.2 32.1761C231.34 32.1761 230.6 31.9924 229.979 31.625C229.361 31.2538 228.884 30.733 228.547 30.0625C228.214 29.3883 228.047 28.5985 228.047 27.6932C228.047 26.7992 228.214 26.0114 228.547 25.3295C228.884 24.6477 229.354 24.1155 229.956 23.733C230.562 23.3504 231.27 23.1591 232.081 23.1591C232.573 23.1591 233.051 23.2405 233.513 23.4034C233.975 23.5663 234.39 23.822 234.757 24.1705C235.125 24.5189 235.414 24.9716 235.626 25.5284C235.839 26.0814 235.945 26.7538 235.945 27.5455V28.1477H229.007V26.875H234.28C234.28 26.428 234.189 26.0322 234.007 25.6875C233.825 25.339 233.57 25.0644 233.24 24.8636C232.914 24.6629 232.532 24.5625 232.092 24.5625C231.615 24.5625 231.198 24.6799 230.842 24.9148C230.49 25.1458 230.217 25.4489 230.024 25.8239C229.835 26.1951 229.74 26.5985 229.74 27.0341V28.0284C229.74 28.6117 229.842 29.108 230.047 29.517C230.255 29.9261 230.545 30.2386 230.916 30.4545C231.287 30.6667 231.721 30.7727 232.217 30.7727C232.539 30.7727 232.833 30.7273 233.098 30.6364C233.363 30.5417 233.592 30.4015 233.786 30.2159C233.979 30.0303 234.126 29.8011 234.229 29.5284L235.837 29.8182C235.708 30.2917 235.477 30.7064 235.143 31.0625C234.814 31.4148 234.399 31.6894 233.899 31.8864C233.403 32.0795 232.837 32.1761 232.2 32.1761ZM239.528 26.8182V32H237.83V23.2727H239.46V24.6932H239.568C239.769 24.2311 240.083 23.8598 240.511 23.5795C240.943 23.2992 241.487 23.1591 242.142 23.1591C242.737 23.1591 243.258 23.2841 243.705 23.5341C244.152 23.7803 244.498 24.1477 244.744 24.6364C244.991 25.125 245.114 25.7292 245.114 26.4489V32H243.415V26.6534C243.415 26.0208 243.25 25.5265 242.92 25.1705C242.591 24.8106 242.138 24.6307 241.562 24.6307C241.169 24.6307 240.818 24.7159 240.511 24.8864C240.208 25.0568 239.968 25.3068 239.79 25.6364C239.616 25.9621 239.528 26.3561 239.528 26.8182ZM251.466 23.2727V24.6364H246.699V23.2727H251.466ZM247.977 21.1818H249.676V29.4375C249.676 29.767 249.725 30.0152 249.824 30.1818C249.922 30.3447 250.049 30.4564 250.205 30.517C250.364 30.5739 250.536 30.6023 250.722 30.6023C250.858 30.6023 250.977 30.5928 251.08 30.5739C251.182 30.5549 251.261 30.5398 251.318 30.5284L251.625 31.9318C251.527 31.9697 251.386 32.0076 251.205 32.0455C251.023 32.0871 250.795 32.1098 250.523 32.1136C250.076 32.1212 249.659 32.0417 249.273 31.875C248.886 31.7083 248.574 31.4508 248.335 31.1023C248.097 30.7538 247.977 30.3163 247.977 29.7898V21.1818Z" fill="white"/>
</svg>
