<svg width="170" height="19" viewBox="0 0 170 19" fill="none" xmlns="http://www.w3.org/2000/svg">
<path d="M9.73336 13.0226C10.4085 13.0226 10.9559 12.4753 10.9559 11.8001C10.9559 11.125 10.4085 10.5776 9.73336 10.5776C9.0582 10.5776 8.51086 11.125 8.51086 11.8001C8.51086 12.4753 9.0582 13.0226 9.73336 13.0226Z" fill="black"/>
<path d="M14.4433 7.15775V6.22025C14.4433 4.19525 13.9558 1.51025 9.73334 1.51025C5.51084 1.51025 5.02334 4.19525 5.02334 6.22025V7.15775C2.92334 7.42025 2.23334 8.48525 2.23334 11.1028V12.4978C2.23334 15.5728 3.17084 16.5103 6.24584 16.5103H13.2208C16.2958 16.5103 17.2333 15.5728 17.2333 12.4978V11.1028C17.2333 8.48525 16.5433 7.42025 14.4433 7.15775ZM9.73334 14.0653C8.48084 14.0653 7.46834 13.0453 7.46834 11.8003C7.46834 10.5478 8.48834 9.53525 9.73334 9.53525C10.9783 9.53525 11.9983 10.5553 11.9983 11.8003C11.9983 13.0528 10.9858 14.0653 9.73334 14.0653ZM6.24584 7.09025C6.18584 7.09025 6.13334 7.09025 6.07334 7.09025V6.22025C6.07334 4.02275 6.69584 2.56025 9.73334 2.56025C12.7708 2.56025 13.3933 4.02275 13.3933 6.22025V7.09775C13.3333 7.09775 13.2808 7.09775 13.2208 7.09775H6.24584V7.09025Z" fill="black"/>
<path d="M35.4052 7.00315C35.3522 6.53251 35.1334 6.16792 34.749 5.9094C34.3645 5.64756 33.8806 5.51665 33.2973 5.51665C32.8796 5.51665 32.5184 5.58293 32.2135 5.71551C31.9085 5.84477 31.6715 6.02375 31.5025 6.25244C31.3368 6.47782 31.2539 6.73469 31.2539 7.02304C31.2539 7.26499 31.3103 7.4738 31.423 7.64946C31.539 7.82512 31.6898 7.97261 31.8754 8.09193C32.0643 8.20793 32.2665 8.30571 32.4819 8.38525C32.6974 8.46148 32.9045 8.52446 33.1034 8.57417L34.0977 8.8327C34.4225 8.91224 34.7556 9.01996 35.097 9.15585C35.4384 9.29174 35.7549 9.47072 36.0465 9.69278C36.3382 9.91485 36.5735 10.1899 36.7525 10.5181C36.9348 10.8462 37.026 11.2389 37.026 11.6963C37.026 12.273 36.8768 12.7851 36.5785 13.2326C36.2835 13.68 35.8543 14.033 35.2909 14.2915C34.7307 14.55 34.0529 14.6793 33.2575 14.6793C32.4952 14.6793 31.8356 14.5583 31.2788 14.3164C30.722 14.0744 30.2861 13.7314 29.9713 13.2872C29.6564 12.8398 29.4824 12.3095 29.4492 11.6963H30.9904C31.0203 12.0642 31.1396 12.3708 31.3484 12.6161C31.5605 12.858 31.8306 13.0387 32.1588 13.158C32.4902 13.274 32.8531 13.332 33.2475 13.332C33.6817 13.332 34.0679 13.264 34.4059 13.1282C34.7473 12.9889 35.0158 12.7967 35.2113 12.5514C35.4069 12.3029 35.5046 12.0129 35.5046 11.6814C35.5046 11.3798 35.4185 11.1329 35.2461 10.9407C35.0771 10.7484 34.8467 10.5893 34.5551 10.4634C34.2667 10.3374 33.9403 10.2264 33.5757 10.1303L32.3725 9.80216C31.5572 9.58009 30.9109 9.25362 30.4336 8.82275C29.9597 8.39188 29.7227 7.82181 29.7227 7.11253C29.7227 6.52588 29.8818 6.0138 30.2 5.5763C30.5181 5.1388 30.949 4.79908 31.4926 4.55713C32.0361 4.31186 32.6493 4.18923 33.3321 4.18923C34.0215 4.18923 34.6296 4.31021 35.1566 4.55216C35.6869 4.79411 36.1045 5.1272 36.4095 5.55145C36.7144 5.97237 36.8735 6.45628 36.8867 7.00315H35.4052ZM42.0336 14.6644C41.2812 14.6644 40.6333 14.5036 40.0897 14.1821C39.5494 13.8573 39.1318 13.4016 38.8369 12.8149C38.5452 12.225 38.3994 11.5339 38.3994 10.7418C38.3994 9.95959 38.5452 9.2702 38.8369 8.67361C39.1318 8.07702 39.5428 7.61134 40.0698 7.27659C40.6001 6.94184 41.2199 6.77446 41.9292 6.77446C42.3601 6.77446 42.7777 6.84572 43.182 6.98824C43.5864 7.13076 43.9493 7.35448 44.2708 7.6594C44.5923 7.96433 44.8458 8.3604 45.0315 8.84761C45.2171 9.33151 45.3099 9.91982 45.3099 10.6125V11.1395H39.2396V10.0259H43.8532C43.8532 9.63478 43.7736 9.28843 43.6146 8.98682C43.4555 8.68189 43.2317 8.4416 42.9434 8.26594C42.6583 8.09027 42.3236 8.00244 41.9391 8.00244C41.5215 8.00244 41.1569 8.10519 40.8454 8.31068C40.5371 8.51286 40.2985 8.77801 40.1295 9.10613C39.9637 9.43094 39.8809 9.78393 39.8809 10.1651V11.0351C39.8809 11.5455 39.9704 11.9797 40.1494 12.3377C40.3316 12.6956 40.5852 12.9691 40.91 13.158C41.2348 13.3436 41.6143 13.4364 42.0485 13.4364C42.3302 13.4364 42.5871 13.3966 42.8191 13.3171C43.0511 13.2342 43.2516 13.1116 43.4207 12.9492C43.5897 12.7868 43.719 12.5862 43.8084 12.3476L45.2154 12.6012C45.1027 13.0155 44.9005 13.3784 44.6089 13.6899C44.3205 13.9982 43.9576 14.2385 43.5201 14.4108C43.0859 14.5799 42.5904 14.6644 42.0336 14.6644ZM50.1758 14.6644C49.4367 14.6644 48.8003 14.497 48.2667 14.1622C47.7364 13.8242 47.3287 13.3585 47.0437 12.7652C46.7587 12.1719 46.6161 11.4925 46.6161 10.7269C46.6161 9.9513 46.762 9.26688 47.0536 8.67361C47.3453 8.07702 47.7563 7.61134 48.2866 7.27659C48.8169 6.94184 49.4417 6.77446 50.1609 6.77446C50.7409 6.77446 51.258 6.88218 51.712 7.09761C52.1661 7.30973 52.5323 7.60803 52.8108 7.9925C53.0925 8.37697 53.2599 8.82607 53.3129 9.3398H51.8661C51.7866 8.98184 51.6043 8.67361 51.3193 8.41508C51.0376 8.15656 50.6597 8.0273 50.1858 8.0273C49.7715 8.0273 49.4085 8.13667 49.097 8.35542C48.7887 8.57086 48.5484 8.8791 48.3761 9.28014C48.2037 9.67787 48.1176 10.1485 48.1176 10.6921C48.1176 11.2489 48.2021 11.7295 48.3711 12.1338C48.5402 12.5382 48.7788 12.8514 49.087 13.0735C49.3986 13.2955 49.7648 13.4066 50.1858 13.4066C50.4675 13.4066 50.7227 13.3552 50.9514 13.2524C51.1834 13.1464 51.3773 12.9956 51.5331 12.8C51.6921 12.6045 51.8032 12.3692 51.8661 12.0941H53.3129C53.2599 12.5879 53.0991 13.0287 52.8306 13.4165C52.5622 13.8043 52.2026 14.1092 51.7518 14.3313C51.3044 14.5533 50.779 14.6644 50.1758 14.6644ZM59.7399 11.3434V6.87389H61.2314V14.5103H59.7697V13.1878H59.6902C59.5145 13.5955 59.2328 13.9352 58.845 14.207C58.4606 14.4755 57.9816 14.6097 57.4082 14.6097C56.9177 14.6097 56.4835 14.502 56.1057 14.2865C55.7311 14.0678 55.4362 13.7446 55.2207 13.3171C55.0086 12.8895 54.9025 12.3609 54.9025 11.7311V6.87389H56.3891V11.5522C56.3891 12.0725 56.5332 12.4868 56.8216 12.7951C57.1099 13.1033 57.4845 13.2574 57.9452 13.2574C58.2236 13.2574 58.5003 13.1878 58.7754 13.0486C59.0538 12.9094 59.2842 12.6989 59.4665 12.4172C59.6521 12.1355 59.7432 11.7775 59.7399 11.3434ZM63.2287 14.5103V6.87389H64.6655V8.08696H64.7451C64.8843 7.67597 65.1295 7.35282 65.4809 7.1175C65.8355 6.87886 66.2365 6.75954 66.684 6.75954C66.7768 6.75954 66.8862 6.76286 67.0121 6.76949C67.1414 6.77612 67.2425 6.7844 67.3154 6.79434V8.21622C67.2557 8.19965 67.1496 8.18142 66.9972 8.16153C66.8447 8.13833 66.6923 8.12673 66.5398 8.12673C66.1885 8.12673 65.8753 8.2013 65.6002 8.35045C65.3284 8.49629 65.113 8.70012 64.9539 8.96196C64.7948 9.22048 64.7152 9.51546 64.7152 9.8469V14.5103H63.2287ZM71.6195 14.6644C70.8672 14.6644 70.2192 14.5036 69.6756 14.1821C69.1354 13.8573 68.7178 13.4016 68.4228 12.8149C68.1311 12.225 67.9853 11.5339 67.9853 10.7418C67.9853 9.95959 68.1311 9.2702 68.4228 8.67361C68.7178 8.07702 69.1288 7.61134 69.6557 7.27659C70.186 6.94184 70.8058 6.77446 71.5151 6.77446C71.946 6.77446 72.3636 6.84572 72.768 6.98824C73.1723 7.13076 73.5352 7.35448 73.8567 7.6594C74.1782 7.96433 74.4318 8.3604 74.6174 8.84761C74.803 9.33151 74.8958 9.91982 74.8958 10.6125V11.1395H68.8255V10.0259H73.4391C73.4391 9.63478 73.3596 9.28843 73.2005 8.98682C73.0414 8.68189 72.8177 8.4416 72.5293 8.26594C72.2443 8.09027 71.9095 8.00244 71.5251 8.00244C71.1074 8.00244 70.7429 8.10519 70.4313 8.31068C70.1231 8.51286 69.8844 8.77801 69.7154 9.10613C69.5497 9.43094 69.4668 9.78393 69.4668 10.1651V11.0351C69.4668 11.5455 69.5563 11.9797 69.7353 12.3377C69.9176 12.6956 70.1711 12.9691 70.4959 13.158C70.8208 13.3436 71.2003 13.4364 71.6344 13.4364C71.9162 13.4364 72.173 13.3966 72.405 13.3171C72.637 13.2342 72.8376 13.1116 73.0066 12.9492C73.1756 12.7868 73.3049 12.5862 73.3944 12.3476L74.8013 12.6012C74.6887 13.0155 74.4865 13.3784 74.1948 13.6899C73.9065 13.9982 73.5435 14.2385 73.106 14.4108C72.6718 14.5799 72.1763 14.6644 71.6195 14.6644ZM79.4038 14.6594C78.7873 14.6594 78.2371 14.502 77.7532 14.1871C77.2726 13.8689 76.8948 13.4165 76.6197 12.8299C76.3479 12.2399 76.212 11.5323 76.212 10.707C76.212 9.8817 76.3496 9.17574 76.6247 8.58909C76.9031 8.00244 77.2842 7.55334 77.7681 7.24179C78.252 6.93024 78.8006 6.77446 79.4137 6.77446C79.8877 6.77446 80.2688 6.854 80.5572 7.01309C80.8489 7.16887 81.0742 7.35116 81.2333 7.55997C81.3957 7.76878 81.5217 7.95273 81.6112 8.11182H81.7007V4.32844H83.1872V14.5103H81.7355V13.322H81.6112C81.5217 13.4844 81.3924 13.6701 81.2234 13.8789C81.0577 14.0877 80.829 14.27 80.5373 14.4257C80.2456 14.5815 79.8678 14.6594 79.4038 14.6594ZM79.7319 13.3916C80.1595 13.3916 80.5207 13.279 80.8157 13.0536C81.114 12.8249 81.3394 12.5084 81.4919 12.104C81.6476 11.6996 81.7255 11.229 81.7255 10.6921C81.7255 10.1618 81.6493 9.69775 81.4968 9.30003C81.3444 8.9023 81.1206 8.5924 80.8257 8.37034C80.5307 8.14827 80.1661 8.03724 79.7319 8.03724C79.2845 8.03724 78.9116 8.15325 78.6133 8.38525C78.315 8.61726 78.0896 8.93379 77.9372 9.33483C77.788 9.73587 77.7135 10.1883 77.7135 10.6921C77.7135 11.2025 77.7897 11.6615 77.9421 12.0692C78.0946 12.4769 78.32 12.8 78.6183 13.0387C78.9199 13.274 79.2911 13.3916 79.7319 13.3916ZM89.1332 14.5103V4.32844H90.6197V8.11182H90.7092C90.7954 7.95273 90.9197 7.76878 91.0821 7.55997C91.2445 7.35116 91.4698 7.16887 91.7582 7.01309C92.0465 6.854 92.4277 6.77446 92.9017 6.77446C93.5181 6.77446 94.0683 6.93024 94.5522 7.24179C95.0361 7.55334 95.4156 8.00244 95.6907 8.58909C95.9691 9.17574 96.1083 9.8817 96.1083 10.707C96.1083 11.5323 95.9708 12.2399 95.6957 12.8299C95.4206 13.4165 95.0428 13.8689 94.5622 14.1871C94.0816 14.502 93.5331 14.6594 92.9166 14.6594C92.4526 14.6594 92.0731 14.5815 91.7781 14.4257C91.4864 14.27 91.2577 14.0877 91.092 13.8789C90.9263 13.6701 90.7987 13.4844 90.7092 13.322H90.5849V14.5103H89.1332ZM90.5899 10.6921C90.5899 11.229 90.6678 11.6996 90.8235 12.104C90.9793 12.5084 91.2047 12.8249 91.4997 13.0536C91.7947 13.279 92.1559 13.3916 92.5835 13.3916C93.0276 13.3916 93.3988 13.274 93.6971 13.0387C93.9954 12.8 94.2208 12.4769 94.3733 12.0692C94.529 11.6615 94.6069 11.2025 94.6069 10.6921C94.6069 10.1883 94.5307 9.73587 94.3782 9.33483C94.2291 8.93379 94.0037 8.61726 93.7021 8.38525C93.4038 8.15325 93.0309 8.03724 92.5835 8.03724C92.1526 8.03724 91.788 8.14827 91.4897 8.37034C91.1947 8.5924 90.971 8.9023 90.8186 9.30003C90.6661 9.69775 90.5899 10.1618 90.5899 10.6921ZM98.4574 17.3739C98.2353 17.3739 98.0332 17.3557 97.8509 17.3192C97.6686 17.2861 97.5327 17.2496 97.4432 17.2098L97.8012 15.9918C98.0729 16.0647 98.3149 16.0962 98.527 16.0862C98.7391 16.0763 98.9264 15.9968 99.0888 15.8476C99.2545 15.6985 99.4004 15.4549 99.5263 15.1168L99.7103 14.6097L96.9162 6.87389H98.5071L100.441 12.8H100.521L102.455 6.87389H104.05L100.903 15.5294C100.758 15.9272 100.572 16.2636 100.347 16.5387C100.121 16.8171 99.8528 17.0259 99.5412 17.1651C99.2297 17.3043 98.8684 17.3739 98.4574 17.3739Z" fill="black"/>
<g clip-path="url(#clip0_24_3928)">
<path d="M121.68 16.8407C120.121 16.8407 118.721 15.8527 118.154 14.3517L117.419 12.4098C117.343 12.2334 117.263 12.1193 117.179 12.0662C117.093 12.0132 116.955 11.9867 116.764 11.9867H116.437L116.243 13.6283C116.026 15.462 114.52 16.8407 112.733 16.8407L114.234 4.22181C114.452 2.38812 115.959 1.01001 117.746 1.01001L116.693 9.88249H116.907C117.085 9.88249 117.228 9.85435 117.337 9.79808C117.446 9.74181 117.555 9.63955 117.664 9.49129L119.202 7.31402C119.832 6.4218 120.834 5.89155 121.902 5.8856L123.7 5.87478L120.733 9.77698C120.597 9.9604 120.447 10.1227 120.283 10.2634C120.119 10.4046 119.949 10.528 119.772 10.6335C119.915 10.7536 120.039 10.8927 120.145 11.0512C120.251 11.2097 120.344 11.3915 120.426 11.5961L122.554 16.8412H121.68V16.8407Z" fill="black"/>
<path d="M123.679 16.8407L125.163 4.22235C125.379 2.38866 126.885 1.01001 128.672 1.01001L127.188 13.6283C126.972 15.462 125.466 16.8407 123.679 16.8407Z" fill="black"/>
<path d="M141.542 14.3978C141.685 14.4968 141.855 14.5883 142.053 14.6727C142.251 14.7571 142.51 14.7998 142.831 14.7998C143.281 14.7998 143.615 14.6959 143.833 14.4876C144.051 14.2799 144.16 14.0348 144.16 13.7529C144.16 13.5343 144.104 13.3546 143.991 13.2134C143.879 13.0722 143.73 12.951 143.546 12.8487C143.362 12.7465 143.154 12.655 142.922 12.5739C142.69 12.4932 142.452 12.4029 142.206 12.3044C141.961 12.2059 141.722 12.0912 141.49 11.9608C141.258 11.8304 141.05 11.6665 140.866 11.469C140.682 11.2715 140.534 11.0286 140.421 10.7391C140.309 10.4502 140.252 10.1012 140.252 9.69212C140.252 9.1846 140.343 8.69114 140.523 8.21175C140.704 7.73236 140.973 7.30762 141.331 6.93753C141.69 6.56744 142.134 6.26985 142.666 6.04422C143.198 5.8186 143.819 5.70605 144.528 5.70605C145.238 5.70605 145.87 5.83267 146.426 6.08697C146.982 6.34073 147.441 6.65131 147.802 7.01761L147.153 7.87196C146.773 8.37191 146.102 8.52179 145.557 8.22853C145.403 8.14737 145.23 8.0754 145.035 8.01156C144.841 7.94825 144.617 7.91633 144.365 7.91633C143.894 7.91633 143.558 8.00993 143.357 8.1966C143.156 8.38381 143.055 8.62513 143.055 8.9211C143.055 9.11155 143.111 9.27387 143.224 9.40752C143.336 9.5417 143.484 9.66128 143.669 9.76733C143.853 9.87284 144.063 9.97023 144.298 10.0579C144.533 10.1461 144.774 10.2451 145.019 10.3539C145.265 10.4631 145.505 10.5881 145.741 10.7294C145.976 10.8706 146.186 11.0432 146.37 11.2477C146.554 11.4522 146.702 11.6957 146.815 11.9776C146.927 12.2595 146.983 12.5944 146.983 12.9824C146.983 13.5321 146.878 14.0521 146.666 14.5423C146.455 15.0325 146.151 15.4589 145.756 15.8219C145.36 16.185 144.881 16.4739 144.318 16.6892C143.756 16.9041 143.123 17.0117 142.421 17.0117C142.103 17.0117 141.785 16.9803 141.473 16.9154C141.129 16.844 140.805 16.7461 140.502 16.6205C140.212 16.5004 139.948 16.3581 139.709 16.192C139.471 16.0264 139.276 15.8484 139.126 15.658L139.721 14.7544C140.13 14.1354 140.945 13.9763 141.542 14.3978Z" fill="black"/>
<path d="M147.905 16.8407L149.384 4.26455C149.602 2.40651 151.128 1.01001 152.938 1.01001L152.191 7.31294C152.676 6.76321 153.187 6.35795 153.726 6.09661C154.265 5.83582 154.821 5.70542 155.394 5.70542C155.789 5.70542 156.156 5.77955 156.494 5.92726C156.831 6.07551 157.119 6.29194 157.358 6.57763C157.597 6.86331 157.784 7.21392 157.921 7.63001C158.057 8.04609 158.125 8.52548 158.125 9.06817C158.125 9.19532 158.12 9.32572 158.11 9.45937C158.1 9.59355 158.088 9.73098 158.074 9.87166L157.277 16.8407H154.105L154.903 9.87166C154.916 9.75912 154.927 9.65469 154.934 9.56001C154.941 9.46478 154.944 9.37496 154.944 9.29055C154.944 8.90964 154.879 8.6456 154.75 8.49734C154.62 8.34909 154.426 8.27551 154.167 8.27551C153.955 8.27551 153.733 8.34097 153.502 8.47137C153.27 8.60177 153.047 8.78682 152.832 9.02651C152.617 9.26621 152.416 9.55514 152.228 9.89385C152.041 10.232 151.886 10.6097 151.763 11.0252L151.461 13.5872C151.241 15.4441 149.715 16.8407 147.905 16.8407Z" fill="black"/>
<path d="M167.978 16.8404H166.28C166.082 16.8404 165.917 16.8138 165.784 16.7608C165.651 16.7078 165.545 16.6358 165.466 16.5439C165.388 16.4524 165.333 16.3431 165.303 16.216C165.272 16.0888 165.256 15.9514 165.256 15.8037V15.0213C164.82 15.6419 164.336 16.1283 163.804 16.4805C163.272 16.8333 162.685 17.0092 162.044 17.0092C161.662 17.0092 161.294 16.9296 160.939 16.7711C160.584 16.6126 160.271 16.3729 159.998 16.052C159.725 15.7312 159.507 15.3221 159.343 14.8254C159.179 14.3282 159.097 13.7416 159.097 13.0648C159.097 12.0708 159.273 11.1277 159.625 10.2361C159.976 9.34437 160.467 8.56361 161.098 7.89376C161.728 7.22392 162.477 6.69204 163.343 6.29706C164.209 5.90208 165.161 5.70459 166.198 5.70459C166.702 5.70459 167.214 5.73976 167.732 5.8101C168.251 5.88044 168.762 6.00759 169.267 6.19101L167.978 16.8404ZM163.313 14.4185C163.545 14.4185 163.77 14.3287 163.988 14.1491C164.206 13.9694 164.413 13.7243 164.607 13.4143C164.801 13.1043 164.98 12.7412 165.144 12.3251C165.145 12.3208 165.147 12.317 165.149 12.3127C165.407 11.6547 165.567 10.9605 165.653 10.2561L165.932 7.95815H165.747C165.229 7.95815 164.757 8.07827 164.33 8.31796C163.904 8.55765 163.537 8.88392 163.231 9.29621C162.924 9.70851 162.687 10.1879 162.52 10.7344C162.353 11.2809 162.269 11.8641 162.269 12.4847C162.269 12.8375 162.296 13.1367 162.351 13.3835C162.405 13.6302 162.478 13.8293 162.571 13.9808C162.663 14.1323 162.772 14.2432 162.898 14.3141C163.025 14.3834 163.163 14.4185 163.313 14.4185Z" fill="black"/>
<path d="M137.738 16.8404H136.04C135.842 16.8404 135.676 16.8138 135.543 16.7608C135.41 16.7078 135.305 16.6358 135.226 16.5439C135.148 16.4524 135.093 16.3431 135.062 16.216C135.031 16.0888 135.016 15.9514 135.016 15.8037V15.0213C134.58 15.6419 134.095 16.1283 133.564 16.4805C133.032 16.8333 132.445 17.0092 131.804 17.0092C131.422 17.0092 131.054 16.9296 130.699 16.7711C130.344 16.6126 130.03 16.3729 129.758 16.052C129.485 15.7312 129.267 15.3221 129.103 14.8254C128.939 14.3287 128.857 13.7416 128.857 13.0648C128.857 12.0708 129.033 11.1277 129.384 10.2361C129.736 9.34437 130.227 8.56361 130.857 7.89376C131.488 7.22392 132.237 6.69204 133.103 6.29706C133.969 5.90208 134.92 5.70459 135.957 5.70459C136.462 5.70459 136.973 5.73976 137.492 5.8101C138.01 5.88044 138.522 6.00759 139.027 6.19101L137.738 16.8404ZM133.072 14.4185C133.304 14.4185 133.529 14.3287 133.747 14.1491C133.966 13.9694 134.172 13.7243 134.366 13.4143C134.56 13.1043 134.739 12.7412 134.903 12.3251C134.905 12.3208 134.906 12.317 134.908 12.3127C135.166 11.6547 135.327 10.9605 135.412 10.2561L135.691 7.95815H135.507C134.988 7.95815 134.516 8.07827 134.09 8.31796C133.664 8.55765 133.297 8.88392 132.99 9.29621C132.683 9.70851 132.446 10.1879 132.279 10.7344C132.112 11.2809 132.028 11.8641 132.028 12.4847C132.028 12.8375 132.056 13.1367 132.11 13.3835C132.164 13.6302 132.238 13.8293 132.33 13.9808C132.422 14.1323 132.531 14.2432 132.657 14.3141C132.784 14.3834 132.922 14.4185 133.072 14.4185Z" fill="black"/>
</g>
<defs>
<clipPath id="clip0_24_3928">
<rect width="56.5333" height="16" fill="white" transform="translate(112.733 1.01025)"/>
</clipPath>
</defs>
</svg>
