<svg width="122" height="32" viewBox="0 0 122 32" fill="none" xmlns="http://www.w3.org/2000/svg">
<path d="M8.00004 19.3107L11.42 21.3359L10.5124 17.5189L13.5339 14.9506L9.55505 14.614L8.00004 11.0195L6.44503 14.614L2.46619 14.9506L5.48214 17.5189L4.58012 21.3359L8.00004 19.3107Z" fill="#FB8200"/>
<path d="M22 19.3107L25.42 21.3359L24.5124 17.5189L27.5339 14.9506L23.5551 14.614L22 11.0195L20.445 14.614L16.4662 14.9506L19.4821 17.5189L18.5801 21.3359L22 19.3107Z" fill="#FB8200"/>
<path d="M36 19.3107L39.42 21.3359L38.5124 17.5189L41.5339 14.9506L37.5551 14.614L36 11.0195L34.445 14.614L30.4662 14.9506L33.4821 17.5189L32.5801 21.3359L36 19.3107Z" fill="#FB8200"/>
<path d="M50 19.3107L53.42 21.3359L52.5124 17.5189L55.5339 14.9506L51.5551 14.614L50 11.0195L48.445 14.614L44.4662 14.9506L47.4821 17.5189L46.5801 21.3359L50 19.3107Z" fill="#FB8200"/>
<path d="M64 18.2717V12.8544L64.9463 15.2019L67.3702 15.4174L65.5329 17.1009L66.0808 19.594L64 18.2717ZM69.5339 14.6834L65.5551 14.3281L64 10.4661L62.445 14.3281L58.4662 14.6834L61.4821 17.4387L60.5801 21.5338L64 19.361L67.42 21.5338L66.5124 17.4387L69.5339 14.6834Z" fill="#FB8200"/>
<path d="M87.6084 17.4521V18.7646H80.4307L80.376 17.7734L84.6689 11.0469H85.9883L84.5596 13.4941L82.0918 17.4521H87.6084ZM86.3643 11.0469V21H84.7168V11.0469H86.3643ZM88.973 20.1797C88.973 19.9245 89.0596 19.7103 89.2328 19.5371C89.406 19.3594 89.6407 19.2705 89.9369 19.2705C90.2377 19.2705 90.4724 19.3594 90.641 19.5371C90.8142 19.7103 90.9008 19.9245 90.9008 20.1797C90.9008 20.4349 90.8142 20.6491 90.641 20.8223C90.4724 20.9954 90.2377 21.082 89.9369 21.082C89.6407 21.082 89.406 20.9954 89.2328 20.8223C89.0596 20.6491 88.973 20.4349 88.973 20.1797ZM99.2928 15.1895V16.8164C99.2928 17.5957 99.2153 18.2611 99.0604 18.8125C98.91 19.3594 98.6912 19.8037 98.4041 20.1455C98.117 20.4873 97.7729 20.738 97.3719 20.8975C96.9754 21.057 96.5311 21.1367 96.0389 21.1367C95.6469 21.1367 95.2824 21.0866 94.9451 20.9863C94.6124 20.8861 94.3117 20.7288 94.0428 20.5146C93.7739 20.3005 93.5437 20.0247 93.3523 19.6875C93.1655 19.3457 93.0197 18.9378 92.9148 18.4639C92.8146 17.9899 92.7645 17.4408 92.7645 16.8164V15.1895C92.7645 14.4056 92.8419 13.7448 92.9969 13.207C93.1518 12.6647 93.3729 12.2249 93.66 11.8877C93.9471 11.5459 94.2889 11.2975 94.6854 11.1426C95.0864 10.9876 95.533 10.9102 96.0252 10.9102C96.4217 10.9102 96.7863 10.9603 97.1189 11.0605C97.4562 11.1562 97.757 11.3089 98.0213 11.5186C98.2902 11.7282 98.518 12.0016 98.7049 12.3389C98.8963 12.6715 99.0421 13.0749 99.1424 13.5488C99.2426 14.0182 99.2928 14.5651 99.2928 15.1895ZM97.6453 17.0488V14.9434C97.6453 14.5469 97.6225 14.1982 97.577 13.8975C97.5314 13.5921 97.463 13.3346 97.3719 13.125C97.2853 12.9108 97.1759 12.7376 97.0437 12.6055C96.9116 12.4688 96.7612 12.3708 96.5926 12.3115C96.424 12.2477 96.2348 12.2158 96.0252 12.2158C95.77 12.2158 95.5421 12.266 95.3416 12.3662C95.1411 12.4619 94.9725 12.6169 94.8357 12.8311C94.699 13.0452 94.5942 13.3278 94.5213 13.6787C94.4529 14.0251 94.4187 14.4466 94.4187 14.9434V17.0488C94.4187 17.4499 94.4415 17.8031 94.4871 18.1084C94.5327 18.4137 94.601 18.6758 94.6922 18.8945C94.7833 19.1087 94.8927 19.2865 95.0203 19.4277C95.1525 19.5645 95.3029 19.6647 95.4715 19.7285C95.6447 19.7923 95.8338 19.8242 96.0389 19.8242C96.2986 19.8242 96.5288 19.7741 96.7293 19.6738C96.9298 19.5736 97.0984 19.4141 97.2352 19.1953C97.3719 18.972 97.4744 18.6826 97.5428 18.3271C97.6111 17.9717 97.6453 17.5456 97.6453 17.0488ZM102.592 16.3721L101.279 16.0508L101.82 11.0469H107.186V12.4414H103.187L102.913 14.8818C103.068 14.7907 103.282 14.7018 103.556 14.6152C103.829 14.5241 104.141 14.4785 104.492 14.4785C104.962 14.4785 105.381 14.556 105.75 14.7109C106.124 14.8613 106.441 15.0824 106.7 15.374C106.96 15.6611 107.158 16.012 107.295 16.4268C107.432 16.8369 107.5 17.2995 107.5 17.8145C107.5 18.2747 107.432 18.7054 107.295 19.1064C107.163 19.5075 106.962 19.8607 106.694 20.166C106.425 20.4714 106.085 20.7106 105.675 20.8838C105.269 21.0524 104.789 21.1367 104.233 21.1367C103.818 21.1367 103.419 21.0775 103.036 20.959C102.658 20.8359 102.319 20.6559 102.018 20.4189C101.717 20.1774 101.475 19.8812 101.293 19.5303C101.111 19.1748 101.006 18.7669 100.979 18.3066H102.592C102.633 18.6302 102.722 18.9059 102.859 19.1338C103 19.3571 103.187 19.528 103.419 19.6465C103.652 19.765 103.92 19.8242 104.226 19.8242C104.504 19.8242 104.743 19.7764 104.944 19.6807C105.144 19.5804 105.31 19.4391 105.443 19.2568C105.579 19.07 105.68 18.8512 105.743 18.6006C105.812 18.3499 105.846 18.0719 105.846 17.7666C105.846 17.4749 105.807 17.2083 105.73 16.9668C105.657 16.7253 105.545 16.5156 105.395 16.3379C105.249 16.1602 105.064 16.0234 104.841 15.9277C104.618 15.8275 104.36 15.7773 104.069 15.7773C103.677 15.7773 103.376 15.8343 103.166 15.9482C102.961 16.0622 102.77 16.2035 102.592 16.3721Z" fill="#4F4F5B"/>
</svg>
