<svg width="115" height="33" viewBox="0 0 115 33" fill="none" xmlns="http://www.w3.org/2000/svg">
<g clip-path="url(#clip0_24_3833)">
<path d="M18.8599 31.6614C15.7412 31.6614 12.9417 29.6854 11.8069 26.6836L10.337 22.7998C10.1862 22.447 10.0261 22.2186 9.85645 22.1126C9.68581 22.0065 9.40942 21.9535 9.0273 21.9535H8.37298L7.98562 25.2367C7.5522 28.9041 4.54023 31.6614 0.966064 31.6614L3.96757 6.42371C4.40308 2.75634 7.41715 0.00012207 10.9924 0.00012207L8.88492 17.7451H9.31415C9.66906 17.7451 9.95486 17.6888 10.1737 17.5763C10.3914 17.4637 10.6102 17.2592 10.828 16.9627L13.9028 12.6082C15.1633 10.8237 17.1671 9.7632 19.3038 9.7513L22.9 9.72966L16.966 17.5341C16.6928 17.9009 16.3934 18.2255 16.0657 18.5069C15.738 18.7893 15.3967 19.0361 15.0429 19.2471C15.3297 19.4873 15.5778 19.7654 15.7893 20.0825C16.0008 20.3996 16.1882 20.7632 16.3515 21.1722L20.6072 31.6625H18.8599V31.6614Z" fill="#EF2C5A"/>
<path d="M22.8577 31.6613L25.8257 6.42467C26.2571 2.7573 29.269 0 32.8432 0L29.8752 25.2366C29.4428 28.904 26.4319 31.6613 22.8577 31.6613Z" fill="#EF2C5A"/>
<path d="M58.5833 26.7756C58.8701 26.9736 59.2104 27.1565 59.6061 27.3253C60.0019 27.4942 60.5201 27.5796 61.1608 27.5796C62.0611 27.5796 62.7291 27.3719 63.1656 26.9552C63.6022 26.5397 63.82 26.0495 63.82 25.4857C63.82 25.0485 63.7069 24.6892 63.4818 24.4068C63.2567 24.1244 62.9604 23.882 62.5919 23.6774C62.2234 23.4729 61.8078 23.29 61.344 23.1277C60.8802 22.9665 60.4028 22.7858 59.9118 22.5888C59.4208 22.3919 58.9434 22.1624 58.4796 21.9016C58.0159 21.6408 57.6002 21.313 57.2317 20.918C56.8632 20.523 56.5669 20.0371 56.3418 19.4582C56.1168 18.8803 56.0037 18.1823 56.0037 17.3642C56.0037 16.3492 56.1848 15.3623 56.546 14.4035C56.9072 13.4447 57.4463 12.5952 58.1624 11.855C58.8785 11.1149 59.7684 10.5197 60.8321 10.0684C61.8957 9.61718 63.1374 9.39209 64.5559 9.39209C65.9745 9.39209 67.2392 9.64531 68.352 10.1539C69.4639 10.6614 70.381 11.2826 71.1044 12.0152L69.8052 13.7239C69.0451 14.7238 67.704 15.0236 66.6131 14.437C66.3064 14.2747 65.9588 14.1308 65.5694 14.0031C65.1809 13.8765 64.7339 13.8126 64.2293 13.8126C63.2881 13.8126 62.616 13.9998 62.214 14.3732C61.8109 14.7476 61.6099 15.2302 61.6099 15.8222C61.6099 16.2031 61.7219 16.5277 61.947 16.795C62.1721 17.0634 62.4684 17.3025 62.8369 17.5146C63.2054 17.7257 63.6252 17.9204 64.0953 18.0958C64.5654 18.2721 65.0469 18.4702 65.5379 18.6877C66.0289 18.9063 66.5095 19.1563 66.9806 19.4387C67.4507 19.7211 67.8705 20.0663 68.239 20.4754C68.6075 20.8844 68.9038 21.3714 69.1289 21.9352C69.3539 22.499 69.466 23.1688 69.466 23.9447C69.466 25.0442 69.2545 26.0841 68.8315 27.0645C68.4086 28.045 67.8014 28.8977 67.0109 29.6238C66.2195 30.3499 65.2616 30.9278 64.1361 31.3585C63.0107 31.7881 61.746 32.0034 60.3411 32.0034C59.7045 32.0034 59.069 31.9407 58.4451 31.8108C57.7573 31.668 57.1103 31.4721 56.5041 31.221C55.9241 30.9808 55.3954 30.6962 54.918 30.364C54.4406 30.0329 54.0522 29.6768 53.7518 29.2959L54.9421 27.4887C55.7587 26.2508 57.3888 25.9326 58.5833 26.7756Z" fill="#EF2C5A"/>
<path d="M71.3088 31.6613L74.2674 6.50908C74.7039 2.79301 77.7546 0 81.3759 0L79.8819 12.6059C80.8503 11.5064 81.8732 10.6959 82.9515 10.1732C84.0288 9.65162 85.1406 9.39082 86.287 9.39082C87.0774 9.39082 87.8113 9.53907 88.4865 9.8345C89.1618 10.131 89.7376 10.5639 90.215 11.1352C90.6924 11.7066 91.0672 12.4078 91.3404 13.24C91.6136 14.0722 91.7497 15.0309 91.7497 16.1163C91.7497 16.3706 91.7393 16.6314 91.7194 16.8987C91.6995 17.1671 91.6754 17.4419 91.6482 17.7233L90.0527 31.6613H83.7095L85.3049 17.7233C85.3322 17.4982 85.3531 17.2894 85.3667 17.1C85.3803 16.9095 85.3877 16.7299 85.3877 16.5611C85.3877 15.7993 85.2578 15.2712 84.9993 14.9747C84.7396 14.6782 84.3512 14.531 83.833 14.531C83.41 14.531 82.9661 14.6619 82.5034 14.9227C82.0396 15.1835 81.5926 15.5536 81.1634 16.033C80.7341 16.5124 80.3311 17.0903 79.9563 17.7677C79.5804 18.444 79.2705 19.1993 79.0256 20.0304L78.4215 25.1544C77.9807 28.8683 74.929 31.6613 71.3088 31.6613Z" fill="#EF2C5A"/>
<path d="M111.455 31.6608H108.059C107.663 31.6608 107.333 31.6078 107.067 31.5017C106.801 31.3957 106.589 31.2518 106.432 31.0678C106.275 30.8849 106.166 30.6663 106.105 30.412C106.043 30.1577 106.012 29.8829 106.012 29.5874V28.0227C105.139 29.2639 104.171 30.2367 103.107 30.9412C102.044 31.6468 100.87 31.9985 99.5875 31.9985C98.8232 31.9985 98.0873 31.8394 97.3774 31.5223C96.6676 31.2052 96.0405 30.7259 95.4951 30.0841C94.9496 29.4424 94.5131 28.6243 94.1854 27.6309C93.8577 26.6364 93.6944 25.4634 93.6944 24.1096C93.6944 22.1218 94.0451 20.2356 94.7486 18.4522C95.4511 16.6688 96.4331 15.1073 97.6947 13.7676C98.9562 12.4279 100.453 11.3642 102.186 10.5742C103.918 9.78426 105.821 9.38928 107.895 9.38928C108.904 9.38928 109.927 9.45962 110.964 9.6003C112.001 9.74098 113.024 9.99528 114.034 10.3621L111.455 31.6608ZM102.125 26.8172C102.589 26.8172 103.039 26.6375 103.476 26.2783C103.912 25.919 104.325 25.4288 104.713 24.8087C105.102 24.1886 105.46 23.4625 105.787 22.6304C105.79 22.6217 105.794 22.6141 105.797 22.6055C106.313 21.2896 106.634 19.9012 106.805 18.4923L107.363 13.8964H106.994C105.958 13.8964 105.013 14.1366 104.16 14.616C103.308 15.0954 102.574 15.7479 101.961 16.5725C101.347 17.3971 100.873 18.3559 100.539 19.4489C100.205 20.5418 100.038 21.7084 100.038 22.9496C100.038 23.6551 100.092 24.2536 100.201 24.747C100.31 25.2405 100.456 25.6387 100.641 25.9417C100.825 26.2447 101.043 26.4665 101.295 26.6083C101.549 26.7468 101.825 26.8172 102.125 26.8172Z" fill="#EF2C5A"/>
<path d="M50.9747 31.6608H47.5786C47.1828 31.6608 46.852 31.6078 46.5861 31.5017C46.3202 31.3957 46.1087 31.2518 45.9517 31.0678C45.7946 30.8849 45.6857 30.6663 45.624 30.412C45.5622 30.1577 45.5318 29.8829 45.5318 29.5874V28.0227C44.6587 29.2639 43.6903 30.2367 42.6267 30.9412C41.563 31.6468 40.3894 31.9985 39.1069 31.9985C38.3427 31.9985 37.6067 31.8394 36.8969 31.5223C36.1871 31.2052 35.56 30.7259 35.0146 30.0841C34.4691 29.4424 34.0326 28.6243 33.7049 27.6309C33.3772 26.6375 33.2139 25.4634 33.2139 24.1096C33.2139 22.1218 33.5646 20.2356 34.2681 18.4522C34.9706 16.6688 35.9526 15.1073 37.2141 13.7676C38.4757 12.4279 39.9727 11.3642 41.7054 10.5742C43.437 9.78426 45.3403 9.38928 47.4142 9.38928C48.4234 9.38928 49.4463 9.45962 50.4837 9.6003C51.5202 9.74098 52.543 9.99528 53.5533 10.3621L50.9747 31.6608ZM41.6436 26.8172C42.1074 26.8172 42.5576 26.6375 42.9941 26.2783C43.4307 25.919 43.8432 25.4288 44.2316 24.8087C44.62 24.1886 44.978 23.4625 45.3057 22.6304C45.3089 22.6217 45.312 22.6141 45.3151 22.6055C45.8313 21.2896 46.1527 19.9012 46.3233 18.4923L46.8813 13.8964H46.5128C45.4764 13.8964 44.531 14.1366 43.6788 14.616C42.8266 15.0954 42.0927 15.7479 41.4792 16.5725C40.8658 17.3971 40.3915 18.3559 40.0575 19.4489C39.7236 20.5418 39.5561 21.7084 39.5561 22.9496C39.5561 23.6551 39.6105 24.2536 39.7194 24.747C39.8283 25.2405 39.9748 25.6387 40.1591 25.9417C40.3433 26.2447 40.5611 26.4665 40.8134 26.6083C41.0678 26.7468 41.3431 26.8172 41.6436 26.8172Z" fill="#EF2C5A"/>
</g>
<defs>
<clipPath id="clip0_24_3833">
<rect width="113.068" height="32.0034" fill="white" transform="translate(0.966064)"/>
</clipPath>
</defs>
</svg>
